<svg xmlns="http://www.w3.org/2000/svg" xmlns:xlink="http://www.w3.org/1999/xlink" version="1.1" x="0px" y="0px" viewBox="0 0 100 125" style="enable-background:new 0 0 100 100;" xml:space="preserve"><g><path d="M85.8,46.3h-6.3C77.9,39.9,71.9,35,65,35s-12.8,4.8-14.5,11.3H14.2c-2.1,0-3.7,1.6-3.7,3.7c0,2.1,1.6,3.7,3.7,3.7h36.4   C52.2,60.1,58.2,65,65,65s12.8-4.8,14.5-11.3h6.3c2.1,0,3.7-1.6,3.7-3.7C89.5,47.9,87.8,46.3,85.8,46.3z M65,58.9   c-4.9,0-8.9-4-8.9-8.9s4-8.9,8.9-8.9s8.9,4,8.9,8.9S70,58.9,65,58.9z"/><path d="M14.2,23.9h6.6c1.6,6.4,7.6,11.3,14.5,11.3s12.8-4.8,14.5-11.3h36.1c2.1,0,3.7-1.6,3.7-3.7s-1.6-3.7-3.7-3.7H49.7   c-1.6-6.4-7.6-11.3-14.5-11.3S22.4,9.9,20.8,16.5h-6.6c-2.1,0-3.7,1.6-3.7,3.7S12.2,23.9,14.2,23.9z M35.2,11.3   c4.9,0,8.9,4,8.9,8.9s-4,8.9-8.9,8.9s-8.9-4-8.9-8.9S30.3,11.3,35.2,11.3z"/><path d="M85.8,76.1H49.7c-1.6-6.4-7.6-11.3-14.5-11.3s-12.8,4.8-14.5,11.3h-6.6c-2.1,0-3.7,1.6-3.7,3.7c0,2.1,1.6,3.7,3.7,3.7h6.6   c1.6,6.4,7.6,11.3,14.5,11.3s12.8-4.8,14.5-11.3h36.1c2.1,0,3.7-1.6,3.7-3.7C89.5,77.7,87.8,76.1,85.8,76.1z M35.2,88.7   c-4.9,0-8.9-4-8.9-8.9s4-8.9,8.9-8.9s8.9,4,8.9,8.9S40.2,88.7,35.2,88.7z"/></g><text x="0" y="115" fill="#000000" font-size="5px" font-weight="bold" font-family="'Helvetica Neue', Helvetica, Arial-Unicode, Arial, Sans-serif">Created by Focus</text><text x="0" y="120" fill="#000000" font-size="5px" font-weight="bold" font-family="'Helvetica Neue', Helvetica, Arial-Unicode, Arial, Sans-serif">from the Noun Project</text></svg>