<svg xmlns="http://www.w3.org/2000/svg" viewBox="0 0 484.64114 321.90356" height="321.90356mm" width="484.64114mm">
    <path d="m 7643.0918,104.29688 c -279.8329,0.10031 -559.4261,2.18001 -837.916,13.36328 15.1582,164.10337 7.6862,295.17382 13.998,443.20703 0,0 0.079,17.49605 0.1055,42.35156 -7.5816,3.99993 -16.5142,8.66364 -22.3184,11.50586 -11.0551,5.41357 -15.6072,10.19411 -21.5683,22.48437 -5.9611,12.29027 -44.2757,41.64924 -38.9649,107.19727 4.6799,57.76035 44.0292,67.41989 80.6426,72.63867 -1.1909,37.40539 -2.9963,63.71738 -5.7246,63.90625 -9.5397,0.6604 -66.8555,25.44825 -64.8203,80.79102 3.0715,83.52301 6.6088,136.46831 24.8164,210.37891 68.7188,39.6748 172.3379,-49.6777 172.3379,-49.6777 l -13.0664,-72.6329 614.1738,-3.041 c 0,0 -4.7394,41.372 -1.1211,77.3965 136.9813,12.3277 209.5977,-40.2148 209.5977,-40.2148 l -4.0078,-46.4903 350.6562,2.7266 c 0,0 -11.3832,103.7467 2.1328,121.7402 13.516,17.9935 221.9649,13.3496 221.9649,13.3496 l -23.4825,-236.87105 35.2247,-30.1582 c 0,0 -9e-4,-137.14772 -2.6915,-178.09375 -2.6905,-40.94602 -45.3242,-73.21094 -45.3242,-73.21094 l 8.3282,-552.64063 c -217.532,1.03476 -435.3249,-0.0839 -652.9727,-0.006 z" color="#000" overflow="visible" fill="#fff" paint-order="fill markers stroke" transform="translate(468.61969,103.71142) matrix(0.29634487,0,0,0.29634487,-2458.5733,-132.16999)"/>
    <path d="m 8227.5605,96.035156 c -39.406,0.03315 -92.661,0.323093 -150.25,0.861328 -252.8383,2.36305 -264.0684,2.388235 -411.416,0.921875 -64.2142,-0.63902 -199.3126,-0.0322 -300.2207,1.347657 -171.5071,2.345284 -222.8185,3.359964 -472.455,9.351564 l -96.25,2.31054 1.0917,16.67969 c 0.6011,9.17346 2.6182,35.0252 4.4825,57.44922 1.8644,22.42404 5.281,116.66018 7.5918,209.41406 2.3109,92.75387 5.5161,170.08271 7.123,171.8418 1.6069,1.7589 4.7703,2.05633 7.0293,0.66016 2.8603,-1.76781 3.554,-21.30718 2.2852,-64.35547 -7.5869,-257.41598 -9.5794,-307.12682 -13.6465,-340.6543 -2.5299,-20.85571 -3.4433,-39.07435 -2.0313,-40.48633 7.0252,-7.02514 765.0839,-17.0278 971.7539,-12.82226 38.7323,0.78816 150.4819,0.12447 248.3321,-1.47461 97.8503,-1.59921 195.7381,-1.67436 217.5293,-0.16602 l 39.6211,2.74414 2.8398,20.97071 c 5.3779,39.7064 -0.9721,390.23869 -8.2695,456.47851 -1.0106,9.17349 -0.8405,22.20682 0.3789,28.96289 1.2945,7.17207 4.0576,11.67408 6.6387,10.81836 2.9799,-0.98803 4.6618,-14.05062 5.164,-40.08398 0.4097,-21.2393 2.4998,-91.98907 4.6445,-157.22266 4.308,-131.02627 5.368,-204.14829 4.0625,-280.44726 -0.8305,-48.52416 -1.2023,-50.721959 -8.8652,-52.421879 -2.1995,-0.488 -27.758,-0.710884 -67.1641,-0.677735 z M 8050.6543,159.25 c -36.7911,-0.14049 -74.3358,11.96716 -99.1465,40.31445 -41.1663,47.03428 -33.8135,108.16799 -1.1855,151.04297 l -15.6563,16.10938 c -8.6107,8.85985 -17.7677,21.20828 -20.3496,27.4414 -4.8278,11.65532 -9.0474,14.11811 -13.0605,7.625 -1.2598,-2.03852 -3.8612,-3.70506 -5.7793,-3.70508 -5.1017,10e-6 -4.2661,34.80238 0.9609,40.0293 5.8405,5.84064 5.9703,5.8206 24.2754,-3.875 18.7649,-9.93904 21.5384,-19.70692 4.6348,-16.32617 -6.1158,1.22319 -11.1211,0.85709 -11.1211,-0.81445 0,-6.85961 29.1365,-47.47466 38.4218,-53.5586 9.6377,-6.31482 10.3837,-6.29008 20.2266,0.71875 56.6631,34.58221 124.711,25.95642 164.1445,-10.74609 12.7617,-12.10583 23.428,-21.62336 23.7032,-21.15039 7.0713,12.15205 13.0236,74.45898 7.1562,74.45898 -6.3998,-3.08836 -10.7781,-19.24957 -16.6094,-13.6914 -3.3582,3.30898 -2.4017,8.2673 4.1133,21.3125 4.6696,9.35007 10.7116,17 13.4258,17 6.7242,0 27.1094,-18.57731 27.1094,-24.70508 0,-6.2346 -8.1476,-6.41141 -14.3477,-0.3125 -3.7951,3.73311 -4.2671,2.83145 -2.4297,-4.63477 2.5861,-44.23565 -2.5742,-60.6715 -11.5429,-82.61718 13.94,-45.7999 14.9975,-80.34527 -14.3946,-118.05079 -20.1227,-25.81436 -60.8522,-41.70601 -102.5488,-41.86523 z m 7.0488,14.92969 c 21.3439,0.2819 50.9992,5.93019 60.3789,15.09765 -7.6685,13.8307 -7.4894,13.10458 -16.6445,26.75 -20.9623,31.24372 -45.324,55.7542 -48.0293,48.32227 -5.9681,-30.76252 -4.4468,-56.8826 -8.8027,-89.48633 3.6888,-0.52929 8.1721,-0.74865 13.0976,-0.68359 z m -27.1289,0.875 c 3.5973,23.98702 6.8415,49.93683 7.9453,74.38476 2.0338,48.22674 2.7848,49.60771 30.8047,56.67774 12.5239,3.15997 46.1789,21.99598 59.2949,33.22265 -34.5334,41.34473 -110.6588,33.58499 -141.1894,19.14844 -12.6624,-6.30825 -12.9628,-10.80121 -0.9258,-13.82226 14.2838,-3.58501 11.6486,-11.04824 -2.7812,-7.87696 -6.6253,1.45602 -14.4446,2.91446 -17.377,3.24219 -3.0307,0.33855 -9.9412,-8.32422 -16.0117,-20.07422 -13.9891,-27.0765 -16.7501,-67.95258 -3.5117,-90.88086 22.3599,-38.72625 54.8416,-53.06399 83.7519,-54.02148 z m -314.5605,1.89648 c -67.2111,0.04 -172.4317,2.91078 -172.4317,6.03125 0,1.42597 0.9711,3.56096 2.1563,4.7461 2.4402,2.44029 215.5243,-0.59857 223.6308,-3.18946 3.7322,-1.19278 4.1041,-2.82774 1.2852,-5.64648 -1.3933,-1.39331 -24.0901,-1.9596 -54.6406,-1.94141 z m -463.3614,6.08008 c -10.4384,0.0505 -17.1013,0.29763 -17.9043,0.79687 -10.4977,6.5279 7.9658,8.6715 89.5293,10.39454 48.2498,1.0193 93.984,2.10605 101.6329,2.41406 17.5621,0.70715 21.8795,-5.11391 5.6562,-7.62695 -17.5382,-2.71674 -133.6807,-6.19729 -178.9141,-5.97852 z m -106.8164,4.30273 c -8.8792,0.0732 -26.948,1.73508 -63.707,5.06446 -32.6166,2.95425 -75.4651,5.40737 -95.2207,5.45117 -19.7555,0.0439 -36.8808,1.6334 -38.0547,3.5332 -1.1742,1.8998 2.4806,3.98638 8.1211,4.63477 10.8392,1.24594 81.1539,-1.67746 153.8809,-6.39649 32.6442,-2.11815 43.5508,-4.07606 43.5507,-7.81836 0,-3.02647 0.3089,-4.54192 -8.5703,-4.46875 z m 985.1231,12.08008 c 4.738,2.69752 6.6218,2.79544 11.1348,8.04297 9.2064,10.70528 12.1857,20.12305 6.3652,20.12305 -1.64,0 -17.4411,9.17465 -35.1133,20.38672 -31.2301,19.81379 -36.0352,22.29724 -36.0352,18.62695 22.096,-25.41324 41.5792,-54.66082 53.6485,-67.17969 z m -412.2832,7.16602 c -61.064,0.1922 -163.489,3.7917 -172.0977,7.36133 -9.7534,4.04423 -3.6559,21.71192 -4.1719,45.36328 -0.1157,5.30955 3.5519,11.23607 10.5918,19.21875 8.8214,10.00277 32.6886,41.20104 34.0821,55.70312 4.9333,8.34067 12.9103,7.31099 19.3887,14.51758 11.5825,12.99947 21.7888,16.9329 38.1992,4.85547 0,0 6.629,6.34629 16.834,8.25195 6.0917,1.13755 25.7898,31.30805 38.1054,66.42774 19.2743,54.96213 27.2605,105.49166 24.3047,153.80078 -3.6124,59.03985 -18.0717,177.58329 -22.1582,181.66992 -0.5789,0.57881 -7.8748,-2.32288 -16.2148,-6.44922 -11.5536,-5.71633 -22.9766,-7.57917 -47.9825,-7.82422 -52.3087,-0.51256 -100.4391,20.04113 -123.8203,52.87696 -8.6953,12.21137 -10.5829,42.30226 -3.7754,60.19726 5.8514,15.3816 4.8685,38.223 -3.3242,77.1875 -9.1814,37.1266 -18.1827,81.37932 -37.6238,103.72302 -22.3172,-0.7399 -308.0537,-3.1285 -396.8938,-0.7562 -54.5962,1.458 -81.8488,3.5634 -84.8379,6.5547 -3.4022,3.4048 45.2278,4.3918 213.8672,4.3398 120.048,-0.038 228.7733,-0.047 241.6133,-0.025 l 23.3457,0.043 -11.3535,22.4883 c -6.244,12.3694 -12.9967,22.4902 -15.0059,22.4902 -5.3897,0 -4.4376,9.5597 1.4375,14.4355 8.6747,7.1994 14.9107,1.1557 25.502,-24.7148 14.1465,-34.5552 13.9462,-34.3569 37.3984,-36.7773 25.729,-2.6555 27.6776,-8.5391 2.8282,-8.5391 h -18.1348 l 11.0723,-28.5156 c 6.0898,-15.6831 14.037,-41.95288 17.6621,-58.37698 4.9971,-22.6412 7.1187,-27.6212 8.7715,-20.5957 8.9365,37.9855 11.1323,62.03371 11.2675,123.36328 0.1338,60.6865 0.887,69.4814 5.8711,68.5332 15.3293,-2.9168 12.9542,-132.29253 -3.9726,-216.39453 -6.5289,-32.44 -7.1145,-41.50396 -3.5879,-55.50976 4.6437,-18.44152 2.94,-24.49538 -6.459,-22.94336 -9.5746,1.58107 -9.5104,-12.41105 0.123,-26.67383 9.613,-14.23266 37.4461,-32.01917 62.2383,-39.77344 25.0473,-6.4899 98.4755,-5.30935 100.0742,23.11133 0,5.52088 2.8049,9.53924 7.752,11.10937 18.6967,5.93406 31.0715,64.7167 36.8457,175.0293 2.4813,47.40012 3.4977,91.24612 2.2598,97.43552 -1.6204,8.1017 -0.6973,11.8496 3.2929,13.3809 10.5578,4.0513 15.5855,-4.9985 13.6973,-24.6504 l -1.7813,-18.5293 36.6094,-0.2773 c 20.1353,-0.1523 62.4632,-0.5685 94.0606,-0.9258 31.5976,-0.3574 91.2957,-0.064 132.664,0.6543 l 75.2168,1.3066 -0.332,56.1445 c -0.1817,30.8792 -0.2552,58.2293 -0.1602,60.7774 0.095,2.5483 3.9252,4.6328 8.5118,4.6328 h 8.3398 l -0.334,-80.6152 c -0.1838,-44.3383 0.6505,-89.72009 1.8535,-100.84769 1.9135,-17.6987 3.3446,-20.50249 11.4336,-22.40039 11.9543,-2.8047 14.1411,-14.37192 4.1446,-21.91992 -7.764,-5.8623 -7.7635,-5.88646 -0.5235,-17.78516 15.8648,-26.0736 61.8789,-40.81721 92.7656,-29.72461 12.596,4.5238 12.9727,5.22461 12.9727,24.19531 0,20.7449 5.6086,28.6037 16.3477,22.9043 13.0555,-5.55229 29.5817,-13.91421 37.9843,-3.76172 3.3816,4.1548 8.139,19.6505 10.5703,34.4336 6.7686,50.04648 11.9977,86.73378 13.127,122.55278 1.2484,41.1467 2.9138,76.8981 3.7012,79.455 0.7884,2.5474 4.6423,4.6309 8.5644,4.6309 9.8805,0 11.0237,-5.3667 7.4981,-35.2109 -1.6856,-14.27 -4.7819,-50.1284 -6.8809,-79.6876 -2.099,-29.5588 -5.813,-68.36623 -8.2519,-86.23823 -3.9955,-29.2792 -3.8108,-33.11696 1.8574,-38.78516 5.9167,-5.9167 6.291,-5.67817 6.291,4.01563 0,9.0577 1.2346,10.16341 10.1914,9.13281 9.4008,-1.0817 10.2093,-2.46846 10.3906,-17.85156 0.108,-9.1734 2.3134,-40.86288 4.9024,-70.42188 6.5993,-75.34654 2.0774,-135.36083 -12.4649,-165.40625 -11.3666,-23.48383 -34.0888,-46.88368 -51.9375,-53.48633 -6.1156,-2.26216 -13.9568,-5.55612 -17.3808,-7.40234 -8.389,-4.5233 -69.6983,-7.97298 -85.0977,-0.39648 -17.2445,8.48428 -37.6152,19.98088 -51.6133,41.79492 -10.8325,16.88108 -11.9218,19.77734 -11.9218,19.77734 -23.5091,-2.8034 -19.7327,10.3619 -10.8008,13.4043 2.7157,0.92506 4.7009,2.66505 -0.7344,18.44141 -11.644,52.23518 22.1665,95.23053 62.2012,109.23242 19.0011,6.64553 63.0578,4.33827 70.5234,-1.57227 0.8021,0.83635 -0.2341,11.26142 -2.3027,23.16602 l -3.7617,21.64453 -13.4747,-2.72656 c -38.6598,-7.93467 -104.0005,0.32235 -115.3867,56.73046 -0.013,7.8805 -1.4924,8.33985 -26.8965,8.33985 -27.4283,0 -65.537,-8.76088 -87.4902,-20.11328 -31.8923,-16.4921 -52.583,-52.62389 -70.1953,-122.58399 -13.5141,-53.6817 -13.6943,-59.03502 -2.6563,-78.75 5.4253,-9.68973 12.2479,-26.79198 15.1602,-38.0039 2.9121,-11.21212 7.4559,-22.05318 10.0977,-24.0918 41.3302,-31.89187 48.6197,-40.71682 50.7734,-43.83398 3.6073,-5.22119 4.3414,-10.87058 9.6465,-18.67774 13.1657,-19.37501 10.3426,-17.86709 -23.586,-13.17578 -22.6171,3.12718 -26.4269,4.24215 -35.7285,9.78711 -16.4261,9.79192 -28.6289,23.22675 -43.2734,23.25195 -17.7546,0.0326 -37.8633,18.33002 -37.8633,37.7461 0,4.85092 -3.8078,5.239 -9.2754,6.01562 -5.8656,0.83303 -6.7354,6.97366 -7.5312,13.8418 -0.6224,5.37074 -9.4804,9.93381 -18.0235,16.57031 -5.5173,4.28597 -16.1959,12.05262 -12.7539,18.32813 l 13.8301,18.48828 c 14.5293,19.42266 21.5393,17.04715 38.1055,7.73632 16.6929,-9.38184 21.2125,-18.06403 26.3789,8.67774 0.9396,4.86356 6.0107,32.92404 13.3574,62.15625 19.3509,76.99625 36.7664,107.89014 71.4609,126.77344 29.0243,15.7968 58.95,24.78809 90.7969,27.27929 l 29.211,2.28516 c -3.7494,24.8619 -5.5128,40.65414 -6.4395,64.83594 -1.4053,1.4071 -77.4725,3.0978 -169.0391,3.7559 -159.0139,1.1425 -166.492,0.8922 -166.623,-5.5606 -0.076,-3.7158 -1.658,-38.44533 -3.5156,-77.17772 -3.6214,-75.5128 -13.96,-129.81877 -29.8418,-156.73633 -7.4964,-12.70543 -7.5609,-13.98082 -1.9629,-39.39063 7.7996,-35.40435 16.6242,-115.70623 19.1777,-174.51953 1.7268,-39.77438 0.7817,-54.51088 -5.4082,-84.44336 -8.7369,-42.24856 -27.0204,-93.23234 -42.6582,-118.94726 -9.0591,-14.89671 -10.2323,-19.27811 -6.6797,-24.9668 6.2597,-10.02331 5.5726,-58.70904 -0.9316,-65.99414 -26.0682,-29.19831 -27.1972,-29.96094 -44.291,-29.96094 -9.21,0 -17.7772,1.66661 -19.0371,3.70508 -4.2736,6.91468 -8.8493,3.74125 -14.543,-5.01953 -6.7873,-10.44327 -8.332,-12.36133 -8.332,-12.36133 -2.5288,-1.57155 -29.914,-17.24595 -32.0938,-19.42578 -2.8134,-2.8134 15.9799,-3.96289 64.7773,-3.96289 80.02,0 137.2083,-3.42383 134.3536,-8.04297 -0.7249,-1.17289 -13.8925,-1.73145 -33.4297,-1.83008 -3.6633,-0.0185 -7.5502,-0.02 -11.6211,-0.008 z m -480.2383,4.90625 c -12.6075,0.0961 -15.2492,2.70667 -8.8477,8.01953 3.3216,2.7567 31.2254,4.58571 80.7715,5.29687 41.6334,0.59767 86.1223,1.46865 98.8633,1.9336 12.741,0.46506 23.1641,-0.59593 23.1641,-2.35742 0,-5.06645 -30.1151,-7.89809 -86.6914,-8.15039 -28.7647,-0.12822 -66.4771,-1.62908 -83.8047,-3.33399 -9.9349,-0.97753 -17.7244,-1.4519 -23.4551,-1.4082 z m -120.2578,13.67578 c -11.7276,0.0156 -25.6782,0.14008 -41.957,0.37109 -51.7925,0.7349 -105.4254,1.49567 -119.1856,1.69141 -16.2327,0.23077 -25.0176,1.85873 -25.0176,4.63477 0,5.64939 228.7788,1.93019 234.5215,-3.8125 1.9965,-1.99656 -13.1786,-2.9317 -48.3613,-2.88477 z m 442.666,8.67383 c 6.6923,1.67581 20.0266,11.14976 20.3652,11.48828 1.1167,1.11675 -16.6577,8.82681 -20.5859,11.79883 -7.9413,6.00791 -6.5703,-15.05537 -6.5703,-19.83985 8e-4,0.003 3.0887,0.60001 6.791,-3.44726 z m 594.5313,3.61718 c 13.5985,21.87194 4.2738,52.16879 0.3671,64.49024 l -11.9414,-14.50195 c -10.6694,-12.9575 -18.4644,-2.0638 -5.2578,8.46679 9.7089,7.74166 9.7122,13.30705 13.2422,18.55274 -3.9489,11.26179 -14.9394,15.99414 -14.9394,15.99414 0,0 -53.3716,-28.51753 -66.9493,-39.35547 0,-1.43911 5.4198,-5.75876 12.045,-9.59766 6.6254,-3.8389 24.3697,-15.03944 39.4316,-24.89062 15.0619,-9.85118 31.2266,-19.1582 34.002,-19.15821 z m -819.7754,5.96094 c -18.0704,-0.0225 -35.3736,0.29222 -49.3926,1.03516 -40.9578,2.17048 -50.2617,3.69079 -50.2617,8.20898 0,4.34435 3.0076,5.04627 13.8984,3.2461 7.6446,-1.26357 56.015,-2.31469 107.4883,-2.33789 51.4732,-0.0224 93.5879,-1.48487 93.5879,-3.25 0,-3.72677 -61.1093,-6.83486 -115.3203,-6.90235 z m -341.2871,14.10938 c -55.6931,0.0595 -66.2849,1.89889 -60.6973,7.48633 1.6491,1.64933 232.3045,1.34143 235.6133,-0.31446 7.6163,-3.81153 -36.1362,-6.17275 -128.7989,-6.95312 -18.0114,-0.15168 -33.2649,-0.23247 -46.1171,-0.21875 z m 590.9941,1.58398 c 5.26,-0.14892 7.1879,5.51164 13.2266,13.15625 8.2223,10.40918 9.5307,8.71094 2.5703,8.71094 -16.489,2.92716 -9.1466,13.42568 3.2949,12.70312 14.4962,-0.97624 19.5666,2.46684 33.7324,22.90821 8.3934,12.11167 9.3725,15.69756 5.5508,20.30273 -15.0257,14.53773 -19.024,11.04028 -22.7168,5.91602 -13.6917,-15.32926 -16.6384,-13.37071 -14.5449,-30.70508 0.3535,-15.02603 -9.7571,-16.65383 -15.9903,-7.40234 -6.4766,-6.44411 -32.3815,-33.30388 -18.8769,-39.45704 5.0892,-2.31879 10.5979,-6.04346 13.7539,-6.13281 z m 52.6445,7.14649 c 8.4831,0.0275 19.9725,3.83684 20.5293,9.7207 0,5.21547 -4.5265,4.1251 -14.4023,-3.46875 -4.8641,-3.73999 -20.9815,-0.94395 -13.0918,-4.95508 1.6433,-0.8942 4.1371,-1.30603 6.9648,-1.29687 z m -290.8125,16.92382 c -89.4491,0 -114.8987,1.02603 -114.8984,4.63282 1e-4,3.56494 22.0036,4.82571 95.4394,5.46875 99.5136,0.87149 134.3594,-0.85627 134.3594,-6.66211 0,-2.0414 -46.7106,-3.43946 -114.9004,-3.43946 z m -279.8359,11.11915 c -63.0096,0 -98.2227,1.32927 -98.2227,3.70703 0,2.37776 35.2131,3.70703 98.2227,3.70703 63.0097,0 98.2207,-1.32927 98.2207,-3.70703 0,-2.37776 -35.211,-3.70703 -98.2207,-3.70703 z m -39.1465,122.14062 c -1.5413,0.003 -3.2164,0.23349 -4.7363,0.22461 -25.8043,0.88755 -41.3706,1.85777 -56.2559,4.39844 -0.576,0.61039 -2.2134,13.70646 -3.6387,29.10351 -2.4939,26.93674 -6.0122,30.93616 2.3653,34.87305 4.7886,2.25045 15.792,0.71818 19.8691,0 4.077,-0.71829 15.4238,-2.34742 25.2149,-3.61914 22.7155,-2.95023 23.2335,-0.47493 23.455,-15.38672 0.1854,-12.48169 -0.6231,-33.9496 -1.0039,-45.57031 -0.5008,-3.40337 -2.7007,-4.02821 -5.2695,-4.02344 z m 79.5664,4.84766 c -8.2453,0.0351 -16.4796,0.88273 -24.6875,2.54882 -14.8295,3.07856 -21.293,6.16053 -21.293,10.1504 0,4.44801 2.2797,5.11171 10.1934,2.96874 60.9004,-16.20792 98.2131,5.35251 117.3926,22.25782 l -10.7656,1.86523 c -17.5652,3.04262 -12.6864,9.11736 9.1992,11.45313 11.212,1.19665 21.5386,2.44717 22.9472,2.77929 6.0178,1.41952 7.0632,-8.35985 2.5352,-23.69531 -3.5426,-11.99761 -6.7732,-16.4707 -11.8984,-16.4707 -7.1792,0 -5.3757,4.92765 -4.6563,8.99023 0.8671,4.89703 1.7831,7.71371 -0.8672,7.67774 -29.061,-20.4052 -58.652,-30.65073 -88.0996,-30.52539 z m -92.9648,3.29687 c 3.4137,0.0535 6.0878,0.55422 7.4765,1.75781 4.5541,4.44229 3.7612,40.90882 -0.1816,43.34571 -1.9465,1.20285 -14.2551,3.28531 -27.3516,4.62695 l -23.8105,2.43945 1.875,-23.58593 1.875,-23.58399 c 6.2897,0.33284 27.9252,-5.19092 40.1172,-5 z m 1118.9472,24.25586 c -22.5212,0.0375 -25.0631,1.5756 -20.5664,6.07227 3.7951,3.7951 91.3137,2.8185 97.4903,-1.08789 3.5458,-2.2425 -12.9497,-3.8395 -47.2637,-4.57618 -12.4261,-0.26681 -22.1531,-0.42071 -29.6602,-0.4082 z m -306.8769,1.94141 c -2.9265,-0.0746 -5.2227,1.31814 -5.2637,4.3164 0,5.24289 6.7198,5.99219 53.7441,5.99219 33.358,0 53.7422,-1.40651 53.7422,-3.70703 0,-2.26652 -17.6395,-3.72881 -45.4043,-3.75781 -24.9721,-0.0279 -49.1553,-1.05596 -53.7422,-2.28516 -1.0555,-0.34588 -2.1006,-0.53372 -3.0761,-0.55859 z m 335.7304,21.42773 c -31.9565,0 -55.5976,1.47005 -55.5976,3.45899 0,1.90311 4.5875,4.1566 10.1933,5.00586 26.4266,4.00324 101.0002,0.079 101,-5.31446 0,-1.73323 -25.0175,-3.15039 -55.5957,-3.15039 z m -263.5097,4.30664 c -8.5842,-0.0735 -21.0603,0.38214 -38.2852,1.30469 -32.8084,1.75725 -49.3916,4.00953 -47.8535,6.49805 2.3777,3.8472 96.5797,1.27398 100.6016,-2.74805 3.3411,-3.34109 -0.1559,-4.93218 -14.4629,-5.05469 z m -656.4141,17.30274 c -9.5013,-0.0494 -8.9897,3.28322 -8.5,13.61523 l 0.6524,13.75391 c 1.2771,16.12599 0.2055,30.33542 3.5761,34.20898 5.9381,6.82426 21.3167,6.95507 49.3418,2.71289 l 16.5508,-2.50586 -0.2851,-29.65234 c -1.1708,-23.8679 3.6428,-29.27793 -6.92,-29.74805 l -52.3808,-2.33203 c -0.7254,-0.0323 -1.4018,-0.0494 -2.0352,-0.0527 z m 294.8281,1.66992 c -59.5892,0.68572 -112.051,39.81161 -115.9238,85.21289 -1.9221,22.53325 -0.6192,51.21047 7.5645,66.50195 3.6927,6.90001 0.4677,6.89836 -7.9512,13.61133 -13.0378,10.39591 0.09,22.05364 18.791,10.82617 0,0 -1.2761,-2.00959 5.1856,7.17969 14.5442,20.68363 39.0013,41.15952 58.2714,48.78516 24.6557,9.75706 56.6541,8.5805 83.0313,-3.05274 74.2012,-34.42199 73.6149,-105.75614 35.2988,-173.55273 -20.5443,-28.15364 -51.0771,-55.89366 -84.2676,-55.51172 z m 355.5079,3.30469 c -2.5874,0.009 -5.3481,0.66161 -7.4707,1.00781 -7.6445,1.26387 -24.7398,2.99119 -37.9903,3.83984 -8.1626,2.58984 -34.945,-3.38419 -21.5215,6.93164 4.7596,3.61747 13.2714,4.0007 35.211,1.58008 33.8381,-3.7334 38.2011,-4.93371 38.2011,-10.50195 -1.4284,-2.23047 -3.8423,-2.86609 -6.4296,-2.85742 z m -649.6114,6.40429 c 15.9634,1.27708 33.986,1.21553 49.9844,1.27539 -0.7057,9.26489 2.9522,30.73059 0.5391,38.07618 -1.5342,3.99779 -8.0738,5.49609 -24,5.49609 -21.5535,0 -21.9262,-0.1802 -24.2071,-11.58399 -2.2143,-11.13909 -2.3164,-22.01242 -2.3164,-33.26367 z m 318.7246,11.48828 v 0 c 2.1675,0 2.2835,3.31473 0.2988,8.53516 -1.9271,5.06827 -1.8154,11.09026 0.2754,14.82617 2.3553,4.20897 2.1943,6.29102 -0.4863,6.29102 -2.2039,0 -4.9693,-2.50617 -6.1446,-5.56836 -2.7699,-7.21807 1.47,-24.08399 6.0547,-24.08399 z m -61.4023,4.12696 c 1.5202,0.13032 2.1286,1.4327 1.4336,3.51757 -0.8919,2.67557 -3.8106,5.59448 -6.4863,6.48633 -2.7797,0.92671 -4.1708,-0.46232 -3.2442,-3.24218 0.8917,-2.67564 3.8108,-5.59439 6.4863,-6.48633 0.695,-0.23166 1.3039,-0.31883 1.8106,-0.27539 z m 35.7324,3.28711 c 2.1739,0 3.4243,4.45744 2.7793,9.90625 -0.6451,5.44881 -3.5099,10.67534 -6.3672,11.61523 -3.8734,1.27394 -4.5931,-0.53931 -2.8301,-7.12695 1.3006,-4.85974 2.3851,-10.08637 2.4141,-11.61524 0.028,-1.52887 1.8298,-2.77929 4.0039,-2.77929 z m 46.2988,4.91601 c 0.9863,0.0583 1.6387,0.78451 1.6387,2.0586 0,2.03852 -1.6685,4.73804 -3.707,5.99804 -2.0386,1.2598 -3.7051,0.62251 -3.7051,-1.41601 0,-2.03852 1.6665,-4.73805 3.7051,-5.99805 0.7644,-0.47246 1.4766,-0.67753 2.0683,-0.64258 z m -72.8574,13.80078 c 1.2212,-0.0913 2.4114,0.84188 3.0371,2.59375 0.9099,2.54818 4.0163,4.63477 6.9043,4.63477 6.4549,0 6.7919,8.75118 0.711,18.48828 -6.2129,9.94844 1.2925,18.4726 9.9433,11.29297 4.7519,-3.94367 5.7168,-3.729 5.7168,1.26953 0,5.81463 -2.3454,6.60205 -22.2383,7.46484 -6.6331,0.28776 -9.6034,2.77044 -10.4511,8.74024 -0.6515,4.5867 0.599,8.33984 2.7793,8.33984 2.1803,0 3.9648,3.33497 3.9648,7.41211 0,4.07705 1.8469,7.41406 4.1035,7.41406 2.2572,0 3.2206,2.29813 2.1426,5.10743 -1.0781,2.8094 -0.2567,6.8134 1.8262,8.89648 5.0601,5.05994 -9.2008,19.35352 -19.3086,19.35352 -4.1411,0 -8.4164,2.31547 -9.502,5.14453 -1.0856,2.82905 -6.4541,6.04702 -11.9297,7.15234 -5.4758,1.10522 -12.876,3.13943 -16.4433,4.51953 -4.995,1.93237 -9.6817,-0.23064 -9.6817,-6.63086 8.4737,-5.00689 2.5142,-20.49264 -6.6152,-15.63672 -15.2784,-23.8744 -15.0143,-79.40992 4.252,-82.91797 4.0771,-0.7423 10.424,-4.0225 14.1054,-7.28906 5.2431,-4.65198 8.1524,-5.02846 13.4239,-1.73633 4.5549,2.84455 7.9466,2.98676 10.4941,0.43946 4.5392,-4.53924 9.8166,2.56491 10.0215,13.49023 0.2334,12.43569 10.9745,10.68985 16.0039,-2.60156 3.9792,-10.51553 3.7557,-12.77241 -1.6563,-16.74805 -3.4402,-2.52706 -4.8974,-5.86408 -3.2382,-7.41406 0.5184,-0.48434 1.0796,-0.73778 1.6347,-0.7793 z m 107.6348,33.17188 c 2.1589,0 3.9258,1.66851 3.9258,3.70703 0,2.03853 -0.7358,3.70703 -1.6348,3.70703 -0.899,0 -2.664,-1.6685 -3.9238,-3.70703 -1.26,-2.03852 -0.526,-3.70703 1.6328,-3.70703 z m -367.8125,6.13476 c -4.2432,0.35651 -8.6401,10.8265 -11.7559,17.35743 -5.3714,11.35411 -15.1012,25.14961 -21.623,30.65625 -11.8834,10.03406 -47.3983,28.30095 -49.9883,25.71093 -0.7585,-0.75847 1.3985,-5.62116 4.7949,-10.80468 5.6633,-8.6434 5.0836,-17.17276 -1.1679,-17.16016 -5.6783,0.008 -23.3571,37.34152 -21.0801,44.51562 1.9188,6.04573 5.6275,7.3711 20.6211,7.3711 13.4036,0 18.2832,-1.41696 18.2832,-5.3125 0,-3.04127 -4.3595,-5.81492 -10.1934,-6.48633 -8.8767,-1.02124 -6.8708,-2.74705 15.5274,-13.35352 14.1454,-6.69845 31.9121,-18.68852 39.4824,-26.64648 15.4025,-16.19127 25.0096,-39.23435 18.9043,-45.33984 -0.5958,-0.40282 -1.1985,-0.55875 -1.8047,-0.50782 z m -399.6094,1.26172 c -6.7132,0.2632 -23.0552,7.523 -58.8965,25.14453 -7.1349,3.50801 -15.459,11.52674 -18.498,17.82032 -3.6572,7.57451 -10.8629,13.65065 -21.3125,17.97265 -15.1017,6.24603 -20.0077,13.86823 -12.0801,18.76758 6.1155,3.7797 4.1907,9.26758 -3.252,9.26758 -8.5231,0 -16.8493,9.28791 -13.371,14.91601 1.401,2.26681 4.8027,2.99469 7.7324,2.13086 9.2732,0.6069 3.9648,4.76771 -2.8653,5.85938 -9.3741,1.37923 -13.9159,10.45117 -5.2324,10.45117 8.3567,0 7.2593,6.40788 -1.9414,11.33203 -5.7121,3.05696 -6.7085,5.2836 -3.707,8.28516 2.2574,2.25751 5.648,4.34741 6.1973,8.49023 8.4426,51.633 33.4242,83.04906 80.1464,91.23438 57.9405,9.52459 122.7138,-15.8421 138.8672,-54.41602 2.7583,-6.58684 4.0662,-9.98144 5.5781,-16.49805 18.0493,-0.40714 16.7996,-18.03069 2.7071,-16.74609 0.5289,-6.03769 0.3533,-9.5547 0.1484,-18.17969 9.0395,-3.67749 1.3697,-38.51055 -3.8457,-45.8125 -4.1642,-5.83022 -11.3379,-4.00586 -11.3379,-4.00586 -3.9661,-7.80772 -19.7964,-33.65507 -30.3847,-37.17578 15.11,-6.57286 4.3187,-17.31077 -5.7832,-11.90429 -7.3235,3.91946 -7.7494,3.51988 -5.5567,-5.2168 2.0004,-7.97006 1.1054,-9.46094 -5.6836,-9.46094 -4.4322,0 -11.2835,1.7275 -15.2265,3.83789 -5.5832,2.9879 -7.17,2.62602 -7.17,-1.63476 0,-9.2902 -5.758,-9.78671 -27.3632,-2.35352 -11.4511,3.9398 -20.8204,6.44746 -20.8204,5.57227 0,-0.87509 8.3385,-5.81739 18.5313,-10.98243 10.1927,-5.16492 18.5332,-11.02906 18.5332,-13.0332 0,-2.45535 -1.0618,-3.78174 -4.1133,-3.66211 z m 114.0801,0.20313 c -1.7654,0.0421 -2.1146,2.66534 -0.4473,8.15429 3.8767,12.76258 19.7506,32.25952 32.6817,40.14454 12.2445,7.46632 35.7088,9.70516 35.709,3.40625 -3e-4,-2.03843 -3.9238,-3.70704 -8.7188,-3.70704 -12.512,0 -32.075,-14.3759 -44.2656,-32.52734 -6.7705,-10.08088 -12.3788,-15.53219 -14.959,-15.4707 z m 626.7832,0.89062 c 0.4369,4.9e-4 0.6945,0.31961 0.7148,0.99414 0.065,2.15853 -2.3311,7.1621 -5.3242,11.11914 -2.9929,3.95714 -5.4946,5.43002 -5.5586,3.27149 -0.065,-2.15852 2.3312,-7.1621 5.3242,-11.11914 2.0577,-2.72053 3.8827,-4.26669 4.8438,-4.26563 z m -23.0859,0.21875 c 1.0096,0.0184 1.6796,1.59272 1.6796,5.07422 0,4.31811 -1.0126,10.48827 -2.25,13.71289 -3.8199,9.95473 -9.1508,6.461 -6.6074,-4.33008 2.0879,-8.85832 5.2503,-14.4922 7.1778,-14.45703 z m 414.1914,8.2793 c 5.2177,-0.10072 6.7273,0.573 4.623,6.05664 -1.1161,2.90877 -6.4547,15.36984 -8.6933,14.00586 -2.6374,-1.60683 -11.7618,-16.0293 -11.7618,-16.0293 1.1754,-0.64894 14.628,-4.00996 15.8321,-4.0332 z m -538.293,13.69141 c -0.4885,-0.003 -0.9616,0.0576 -1.4512,0.0723 -2.8624,0.0855 -4.689,2.18922 -0.3105,10.65625 4.1411,8.00813 7.0177,10.17757 9.8027,7.39258 2.7851,-2.78508 2.1021,-6.75123 -2.3301,-13.51563 -2.6372,-4.02493 -4.2454,-4.59625 -5.7109,-4.60546 z m 505.2891,1.53515 c 5.331,8.05667 10.1928,13.9673 14.6355,17.46151 -18.9753,12.51601 -32.8316,27.95469 -61.1173,49.37302 -2.052,-6.90819 -3.1511,-9.23058 -3.1511,-17.23687 0,-11.3112 2.2903,-18.49368 9.8789,-24.46289 7.9719,-5.23884 32.8712,-24.9974 39.754,-25.13477 z m -1149.7676,10.75 c 1.8498,-0.007 3.4727,0.38779 3.916,1.42188 0,2.03852 -8.3095,8.55984 -11.3672,11.09765 -3.1015,2.57385 -4.3496,-0.61796 -4.3496,-2.68554 0,-2.03843 2.5026,-5.78241 5.5605,-8.32032 1.1083,-0.83185 3.8619,-1.50483 6.2403,-1.51367 z m 41.1953,13 c 5.6544,0 10.0137,1.11371 10.0137,3.33985 0,2.03862 -7.9225,3.58856 -17.6055,3.44531 -13.2468,-0.19604 -15.7709,-1.04842 -10.1934,-3.44531 5.1805,-2.22614 12.1307,-3.33985 17.7852,-3.33985 z m 48.9883,6.23047 c 5.4108,0 33.3681,22.43849 32.0371,35.14648 -0.5718,5.45944 -26.9662,13.73173 -86.9004,27.15235 -76.0594,17.0315 -80.4785,19.12521 -80.4785,38.11523 0,12.35472 6.0977,19.00782 17.4199,19.00782 10.1431,0 11.4003,-9.0263 2.0391,-14.64063 -6.0006,-3.59877 -5.8312,-4.44644 2.2636,-11.30469 11.6552,-8.95296 25.5082,-7.62818 37.7227,-13.59961 11.7337,-5.85357 12.6119,-5.82527 16.3223,0.53321 12.0774,20.69778 19.343,25.70989 35.8808,24.74414 17.9738,-1.04962 32.9024,-8.90928 32.9024,-17.32227 0,-7.04639 5.2339,-7.00754 11.1191,0.084 2.5378,3.05773 7.0598,7.13776 26.1953,2.26367 0.132,8.23412 0.4661,8.33024 -0.6289,10.08203 -21.4152,0.40925 -20.554,11.05953 -12.8047,14.0332 4.6005,1.76529 4.5185,3.79378 -0.5879,14.50196 -8.0955,16.97648 -32.1084,33.34199 -59.2422,40.37304 -38.8619,10.07009 -72.9076,5.06703 -93.08,-13.67968 -13.5537,-12.59579 -30.2735,-43.94226 -30.3125,-56.82813 -0.049,-16.34257 7.1448,-34.83594 13.5507,-34.83594 3.7602,0 4.718,-2.29678 3.0938,-7.41406 -2.0077,-6.32564 -0.6664,-7.41211 9.1465,-7.41211 10.2208,0 11.0722,-0.79807 7.6621,-7.16992 -5.2966,-9.89691 -5.309,-9.86901 8.209,-18.0293 7.3053,-4.40965 22.7154,-8.2732 39.1543,-9.8164 14.9094,-1.39947 33.8833,-4.93578 42.164,-7.85743 10.1247,-2.75452 18.4931,-1.2899 27.1524,-6.12695 z m 186.4004,2.66797 c -10.8215,1.70643 -31.7084,-1.3859 -31.1582,5.30859 l 0.1406,20.63672 c 0.1729,25.19987 -2.1599,29.80173 8.4043,29.75196 21.4607,-0.10115 36.4384,-0.79553 51.4355,-3.05665 2.537,-0.38251 5.7424,1.89965 5.2481,-7.9707 l -0.7617,-20.13086 -1.086,-24.53906 z m 1119.5468,4.54883 c 4.154,0.0564 7.2428,2.29565 13.4024,7.4707 16.2145,13.62266 34.5721,42.41711 38.8398,60.92188 4.0186,17.42444 4.4073,68.62058 0.6563,86.43554 -1.7724,8.41715 -6.3621,13.14622 -18.8809,19.45899 -19.4122,9.78901 -44.2213,10.69175 -63.1504,2.29687 l -12.9726,-5.7539 19.2422,-8.6211 c 16.079,-7.20471 20.7998,-11.69908 28.7246,-27.33789 9.4662,-18.68046 11.9597,-29.93324 6.7031,-30.24609 -1.5289,-0.091 -20.2926,-0.50708 -41.6973,-0.92578 -21.4048,-0.41861 -41.0466,-1.6581 -43.0957,-3.47852 -3.5457,-3.14997 4.3535,-28.22266 4.3535,-28.22266 9.2185,4.08585 17.5023,-5.35832 6.9981,-11.03515 -7.3874,-3.99245 -4.2981,-4.11164 7.2754,-21.22266 14.6922,-19.00263 30.7176,-38.28849 52.7558,-39.72265 0.2877,-0.0154 0.5688,-0.0213 0.8457,-0.0176 z m -1096.1757,4.51562 c 0,0 -1.2068,11.79308 -1.1329,17.70703 0.075,5.9641 1.5879,17.82227 1.5879,17.82227 l -21.6699,0.98633 -21.8808,0.78515 -0.4043,-17.0957 c -0.2072,-8.74396 -0.3897,-16.58304 0.416,-17.88672 0.8057,-1.30358 10.952,-1.26821 22.3535,-1.64062 z m 780.5605,5.67383 v 0 c 1.8114,-0.32528 3.9361,6.51259 4.1875,19.04297 0.2123,10.575 2.7676,19.92528 6.6054,24.16602 5.849,6.46357 5.8522,6.91601 0.033,6.91601 -7.9843,0 -13.455,-14.50473 -13.4551,-35.67187 0,-9.61411 1.2182,-14.20013 2.627,-14.45313 z m -363.8516,16.76758 c 5.168,0 7.0809,4.66822 10.6485,25.97851 1.7738,10.59631 0.7355,13.9092 -5.6055,17.86914 -7.5471,4.7134 -7.7068,4.40317 -5.2363,-10.21874 3.2131,-19.01888 -3.6939,-22.82408 -21.4824,-11.83008 l -12.4532,7.69531 c -4.9058,-4.13968 -9.3431,-6.52754 -4.3339,-14.30273 0,6.99626 8.5938,4.51292 13.1406,-2.84376 1.66,-2.68628 9.5335,-4.7319 11.8144,-3.32226 2.2808,1.40963 5.1482,-0.0435 6.3711,-3.23047 1.223,-3.18713 4.4343,-5.79492 7.1367,-5.79492 z m 648.3633,2.56055 c -8.38,0 -9.4838,8.15437 -2.664,12.36914 4.2121,2.60319 15.3132,7.31819 18.7363,-1.82618 3.2336,-8.63807 -10.5132,-10.54296 -16.0723,-10.54296 z m -253.7734,8.55859 c 2.0386,0 3.7051,1.66656 3.7051,3.70508 0,2.03862 -1.6665,3.70703 -3.7051,3.70703 -2.0386,0 -3.707,-1.66841 -3.707,-3.70703 0,-2.03852 1.6684,-3.70508 3.707,-3.70508 z m -981.4473,5.11523 c 6.2629,-0.16696 8.3304,4.39021 9.7969,9.83594 2.071,7.69045 0.241,12.5825 -4.2246,16.08984 -5.7966,7.24847 -15.5809,5.365 -20.2871,-0.20117 -8.3458,-9.87091 -4.6799,-18.36548 3.2363,-22.20898 4.9179,-2.38778 8.6318,-3.43974 11.4785,-3.51563 z m 917.5918,7.56446 c 2.4784,-0.0165 12.9648,9.52888 15.8809,12.16797 4.1253,3.73331 -2.1843,8.53845 -13.0489,12.72265 -5.2781,2.03275 -11.8741,-8.28538 -14.1562,-14.23242 -2.5542,-6.65566 6.5927,-10.62675 11.3242,-10.6582 z m -918.9824,1.41406 c -0.5655,0.007 -1.1866,0.0647 -1.8711,0.17578 -6.3741,1.08246 -9.8236,11.63132 0.094,12.37891 5.9863,0.91696 7.3876,-3.72611 7.1329,-7.19336 -0.2229,-3.03384 -1.3968,-5.40991 -5.3555,-5.36133 z m 575.8301,4.94141 c 2.0066,-0.12523 2.799,1.875 2.3086,3.43554 -0.8918,2.67555 -3.8089,5.59438 -6.4844,6.48633 -2.78,0.92662 -4.1707,-0.46418 -3.2441,-3.24414 0.8918,-2.67554 3.8108,-5.59448 6.4863,-6.48633 0.336,-0.11211 0.6469,-0.17352 0.9336,-0.1914 z m -629.6719,0.1875 c 1.8522,0.0397 3.5221,0.29936 4.8848,0.82226 7.675,2.94519 6.2412,19.85772 -2.0606,24.30078 -15.5658,8.33056 -32.0018,0.83157 -29.2695,-13.35547 1.1136,-5.78322 16.4431,-11.9821 26.4453,-11.76757 z m 1409.8691,4.60937 c 0.4112,0.0514 0.8757,0.34446 1.3985,0.86719 2.1693,2.16927 3.4216,10.9987 2.7812,19.62109 -1.51,20.3303 -6.7246,15.08728 -6.7246,-6.76172 0,-9.64993 0.7633,-13.94951 2.5449,-13.72656 z m -1414.1347,3.31055 c -2.4678,0.0173 -5.4274,0.73481 -6.2266,2.66992 -0.8748,2.11826 -1.162,5.21352 0.1,7.25195 3.4249,5.54179 13.0716,4.46845 12.9727,-1.45703 -0.082,-4.90122 -1.0416,-6.14828 -3.5078,-7.85156 -0.5546,-0.38303 -1.8572,-0.62365 -3.3379,-0.61328 z m 1431.4726,3.79101 c 0.3371,0.0511 0.738,0.61975 1.1817,1.72852 1.0708,2.67554 0.9385,5.8718 -0.293,7.10351 -1.2316,1.23162 -2.1082,-0.95797 -1.9473,-4.86523 0.1112,-2.69864 0.4968,-4.05187 1.0586,-3.9668 z m -172.4414,48.33203 c 18.9902,-0.0567 57.2006,2.05007 59.0488,3.89844 3.6329,3.63286 -5.9488,20.0413 -15.2695,26.14844 -13.2591,8.68767 -31.1163,8.30362 -38.6445,4.73828 -8.2834,-3.923 -16.1043,-29.96475 -15.6602,-33.91797 0.066,-0.58559 4.1954,-0.84827 10.5254,-0.86719 z M 6807.707,773.16602 c -0.2581,0.014 -0.4997,0.0439 -0.7246,0.0918 -5.4618,1.16391 -4.4896,3.35343 5.8946,13.25586 12.591,12.00691 34.2992,16.49338 39.4531,8.1543 1.2921,-2.09082 -1.7204,-3.70703 -6.9102,-3.70703 -5.0602,0 -14.3075,-4.29712 -20.5488,-9.54883 -5.8513,-4.92348 -13.2919,-8.45546 -17.1641,-8.24609 z m 1499.2871,10.38086 c 1.9745,0 2.6305,2.5028 1.4571,5.56054 -1.1734,3.05783 -2.7888,5.56055 -3.5899,5.56055 -0.8012,0 -1.457,-2.50272 -1.457,-5.56055 0,-3.05774 1.6151,-5.56054 3.5898,-5.56054 z m -1096.4863,0.85546 c -25.7246,7.10826 -38.187,8.91865 -59.8589,13.18384 -32.4905,6.39436 -57.0251,11.82613 -86.0259,18.67359 -4.8163,2.27793 -2.2627,50.61102 12.0391,48.39453 l 14.082,-2.32032 c 0.2561,5.26588 10.6783,16.9959 10.6783,16.9959 2.8279,8.03373 -63.4366,83.57796 -168.4404,88.7178 -0.086,-1.1043 -1.4271,-7.76089 -2.9742,-14.92854 -3.6201,-16.7716 -14.5239,-37.31185 -27.8867,-52.53125 -31.2991,-35.6476 -114.2729,-37.43643 -144.5352,-3.11523 -13.9567,15.8286 -23.1259,36.94638 -19.2832,75.10351 6.2185,61.74843 1.456,132.37003 23.127,190.64263 1.9882,5.229 5.3762,9.5058 7.5293,9.5058 8.0039,0 8.142,-12.4667 0.5039,-45.623 -16.7782,-72.8339 -21.3939,-184.98437 -8.5977,-208.89457 23.3469,-32.46907 60.2837,-40.93462 91.7344,-32.22265 31.4507,8.71194 57.4154,34.60135 58.8145,70.83984 3.3454,10.8447 -1.9179,10.72504 -26.2442,-0.60156 -21.9164,-10.2048 -47.5417,-32.07934 -55.414,-47.30274 -5.8343,-11.2825 -15.2861,-13.83275 -18.6621,-5.03515 -5.5241,14.3959 47.8764,60.22825 84.6542,72.65625 l 19.5918,6.61914 2.7793,36.40624 c 6.9825,91.4793 15.3141,119.975 30.6094,104.6797 5.0573,-5.0574 5.106,-7.2263 0.4082,-18.4707 -5.9247,-14.181 -12.5742,-58.9327 -14.4023,-96.9316 l -1.1973,-24.89263 c 101.9894,-6.04921 147.3375,-49.84211 184.3262,-100.6914 22.3366,-8.1613 59.2112,-14.08692 84.0312,-49.23243 20.5229,-5.0778 13.5197,-3.08942 20.0469,-6.29687 13.7748,-6.76896 47.101,-29.87395 45.7383,-35.47461 -0.9785,-4.022 -31.2421,-5.84016 -57.1719,-7.85352 z m 12.9668,10.07813 c 5.7532,-0.0669 12.4062,0.31748 14.6309,1.58398 -5.9779,4.0363 1.3359,7.41797 1.3359,7.41797 -4.425,4.26892 -16.2812,8.37891 -19.2187,8.37891 -5.903,0 -9.509,-16.11492 -4.9805,-16.86524 1.6531,-0.2739 4.7805,-0.4755 8.2324,-0.51562 z m -24.668,4.60351 c 0.7143,4.68084 2.4877,12.58419 5.3946,17.97461 2.2406,4.15482 -18.7444,8.58399 -24.9219,8.58399 8.1469,-11.68286 14.7925,-21.63007 3.8711,-23.1211 9.4749,-1.73921 15.6562,-3.4375 15.6562,-3.4375 z m 1128.8555,5.72657 c 0.6674,-0.31295 0.8821,8.08443 1.166,27.6289 0.2985,20.54145 -1.0659,36.89899 -3.1855,38.20899 -4.3112,2.6645 -4.3847,-23.13862 -0.1543,-53.74219 1.0491,-7.58937 1.7172,-11.88158 2.1738,-12.0957 z m -1165.0937,4.52929 c -2.76,10.80854 -14.3354,20.21307 -20.7715,22.47657 -11.9759,4.21176 -59.9942,13.34375 -59.9942,13.34375 -2.0538,-6.19295 -7.1485,-16.49481 2.2735,-20.96094 25.5675,-6.06065 55.4919,-12.45297 78.4922,-14.85938 z m 1140.8359,3.85938 c 2.0387,0 3.707,4.90512 3.707,10.90039 0,5.99537 -1.6683,11.93141 -3.707,13.19141 -2.2057,1.36315 -3.707,-3.04994 -3.707,-10.9004 0,-7.25516 1.6685,-13.1914 3.707,-13.1914 z m -22.2383,96.36719 c 2.0385,0 3.707,1.66843 3.707,3.70703 0,2.0384 -1.6685,3.70703 -3.707,3.70703 -2.0386,0 -3.707,-1.66863 -3.707,-3.70703 0,-2.0386 1.6684,-3.70703 3.707,-3.70703 z" fill="#030303" transform="translate(468.61969,103.71142) matrix(0.29634487,0,0,0.29634487,-2458.5733,-132.16999)"/>
</svg>
