<svg xmlns="http://www.w3.org/2000/svg" viewBox="0 0 430.84537 356.58099" height="356.58099mm" width="430.84537mm">
    <path transform="translate(268.00391,44.507778) matrix(0.26458333,0,0,0.26458333,-5786.022,-1895.3233) translate(-3313.5291,-2437.8203)" d="m 24690.439,9444.7578 c -36.712,0.163 -78.242,7.6124 -124.857,25.7012 -203.031,78.7851 -155.441,287.123 -155.441,287.123 -131.074,28.2727 -286.967,202.5783 -222.664,311.143 91.898,155.152 374.972,70.613 374.972,70.613 l 71.567,100.258 -8.446,-117.645 92.143,-58.002 138.199,61.541 -22.308,66.078 87.746,-51.052 96.189,-12.696 58.563,70.129 1.593,-92.531 c 75.972,-32.633 90.789,-63.228 135.772,-94.828 l 66.842,26.226 c -14.908,42.862 -24.962,85.32 -52.217,129.211 l 97.463,-100.406 69.621,11.08 33.908,81.746 8.814,-81.084 c 0,0 70.548,-5.874 173.887,-36.07 148.009,-86.0331 155.635,-293.1068 6.742,-408.1055 -196.231,-151.5606 -418.744,13.541 -418.744,13.541 -123.202,-56.8495 -207.654,-80.0863 -281.625,-66.5703 0,0 -68.631,-136.1066 -227.719,-135.4004 z m 778.325,803.0822 c -2.617,0 -5.296,0.08 -8.035,0.248 -58.449,3.621 -107.071,63.622 -101.381,117.932 0,0 81.207,-8.794 87.414,23.275 6.207,32.069 -48.621,43.965 -48.621,43.965 0,0 15.517,27.415 53.793,23.795 59.228,1.328 98.866,-48.104 101.017,-58.951 3.147,9.48 17.982,50.303 41.742,55.33 26.897,5.69 20.689,-1.037 13.965,-11.899 -6.724,-10.862 -9.311,-49.655 15,-88.965 24.31,-39.311 21.725,-71.896 -8.275,-85.861 -30,-13.966 -65.69,15 -65.69,15 0,0 -27.722,-33.833 -80.929,-33.869 z m -577.452,24.215 c -32.448,-0.122 -57.861,23.773 -77.136,47.412 -5.69,11.38 -70.862,77.588 -2.586,128.795 68.276,51.206 121.552,-2.07 146.379,-37.76 24.828,-35.69 33.103,-88.449 -21.725,-123.621 -16.277,-10.442 -31.229,-14.775 -44.932,-14.826 z m 333.413,13.363 c -17.076,-0.317 -36.454,5.034 -58.307,14.91 -53.793,24.311 -43.967,54.83 -40.346,69.313 3.621,14.482 31.551,43.446 16.033,54.308 -15.517,10.862 -31.549,-7.757 -33.101,-10.861 -3.104,73.448 99.827,72.414 145.861,53.793 46.035,-18.62 56.898,-92.586 30.518,-140.172 -15.663,-28.255 -35.702,-40.828 -60.658,-41.291 z m -644.344,5.084 c -79.138,0.516 -99.311,80.172 -99.311,80.172 -28.448,10.862 -45,22.76 -45,22.76 -20.512,23.195 -44.951,46.994 4.139,59.482 l -6.725,15.518 c -24.265,55.895 -3.55,40.912 16.551,26.896 1.753,22.394 14.115,28.116 35.174,20.172 6.595,41.33 48.534,27.748 53.793,1.033 13.793,19.865 27.586,13.925 41.379,-14.48 0,0 44.484,-3.104 79.139,-23.793 34.656,-20.69 40.344,-70.346 33.103,-100.346 -7.241,-30 -53.276,-85.863 -112.242,-87.414 z m 883.037,203.027 c -39.664,0.354 -58.731,19.338 -65.277,44.213 -7.758,29.483 -44.999,113.794 -45.516,115.863 1.552,1.034 5.69,56.38 45,87.415 39.31,31.034 147.93,12.931 147.93,12.931 0,0 17.586,-165.001 19.138,-192.414 1.552,-27.414 -20.689,-57.932 -77.068,-66.207 -8.809,-1.293 -16.862,-1.866 -24.207,-1.801 z m -555.047,11.653 c -39.867,-0.488 -64.39,25.19 -81.266,58.941 -18.621,37.241 -42.929,94.139 -60.515,126.725 53.793,66.724 166.551,75 166.551,75 0,0 21.207,-51.209 40.863,-133.45 19.655,-82.242 -5.174,-119.483 -52.76,-126.207 -4.461,-0.63 -8.749,-0.959 -12.873,-1.009 z m 314.25,7.734 c -1.433,-0.02 -2.877,-0.02 -4.332,0 -3.104,0.06 -6.257,0.225 -9.457,0.516 -51.207,4.655 -71.381,42.929 -70.346,75.515 1.034,32.587 -2.587,140.69 1.034,168.621 65.173,51.207 200.691,1.553 200.691,1.553 0,0 -13.965,-158.794 -27.414,-191.381 -12.214,-29.594 -45.76,-54.069 -90.176,-54.826 z m -580.191,36.219 c -13.852,-0.17 -29.932,3.314 -49.043,8.449 -76.446,20.537 -72.112,61.97 -52.297,177.994 79.691,14.006 188.745,-26.66 187.662,-32.262 -23.252,-120.288 -44.767,-153.672 -86.322,-154.181 z" color="#000" overflow="visible" fill="#fff" paint-order="fill markers stroke"/>
    <path d="m 21376.153,6995.224 c -120.415,1.1932 -242.123,70.5247 -275.135,165.8658 -15.118,43.6675 -23.628,93.7468 -14.891,140.0859 1.334,7.0757 1.553,13.6387 0.484,14.5859 -85.926,36.6243 -154.108,79.0967 -215.122,174.0407 -21.997,45.412 -21.225,108.6082 1.885,154.4373 46.766,88.4753 182.401,101.1202 278.48,87.1311 27.204,-5.3668 61.676,-10.8952 92.911,-23.2044 25.661,18.07 38.651,84.4799 73.947,99.0286 8.619,0 13.638,-5.3719 10.5,-11.2358 -6.896,-15.6936 -5.562,-86.4883 -5.951,-107.2578 19.993,-20.1821 56.675,-27.5316 80.091,-52.5985 l 42.594,21.0979 c 23.426,11.6035 51.813,24.0458 63.076,27.652 l 20.479,6.5582 -1.67,9.167 c -0.922,5.0425 -6.135,18.9494 -11.585,30.9061 -7.475,16.4018 -9.223,23.0198 -7.119,26.9483 4.196,7.84 10.404,8.9995 17.769,3.3167 3.638,-2.8067 21.413,-13.9106 39.495,-24.6744 18.081,-10.7639 35.532,-21.9025 38.779,-24.754 4.299,-3.7772 10.564,-5.1846 23.08,-5.1846 9.449,0 29.005,-2.0322 43.455,-4.5145 14.452,-2.4822 27.45,-4.0889 28.888,-3.5721 4.503,1.618 48.72,54.813 52.318,62.9426 4.309,9.7344 16.198,13.3117 21.257,6.3946 1.976,-2.7033 2.952,-5.9566 2.166,-7.2281 -0.786,-1.2715 -2.115,-13.6275 -2.954,-27.4551 -0.838,-13.8276 -1.996,-29.6406 -2.57,-35.144 -1.714,-16.3935 1.531,-31.442 6.788,-31.5132 16.002,-0.2166 70.41,-35.9674 98.82,-64.9358 l 21.441,-21.8602 16.516,5.1382 c 21.585,6.714 43.679,16.153 43.679,18.661 0,8.5041 -12.653,40.0772 -30.998,77.3568 -11.994,24.372 -22.202,45.1275 -22.689,46.1243 -6.945,20.5781 26.6,4.4082 37.996,-12.4628 10.989,-12.9327 32.199,-35.954 47.138,-51.1581 l 27.161,-27.6435 22.184,2.8978 c 20.676,2.6987 22.734,3.5983 30.282,13.2753 4.453,5.7103 15.017,24.9049 23.48,42.6527 11.469,24.0521 17.007,32.6715 21.735,33.8583 10.376,2.604 12.385,-1.0703 12.405,-22.6977 0.07,-19.101 1.659,-39.1872 3.621,-58.7088 49.174,1.1664 119.187,-14.3467 167.888,-34.0718 67.612,-33.5581 123.608,-117.0408 129.685,-193.3337 5.954,-84.0414 -16.724,-140.6621 -83.849,-203.757 -62.433,-58.6841 -111.95,-77.7422 -180.895,-88.22 -56.784,-8.6295 -115.458,-3.2059 -171.009,15.8089 -35.989,12.3194 -105.934,58.939 -105.934,58.939 -80.998,-50.0065 -195.624,-79.2994 -273.542,-82.3613 -1.005,-5.2167 -53.482,-59.4652 -71.545,-73.4077 -47.71,-36.8272 -106.209,-52.4988 -165.015,-51.9161 z m 9.581,20.4783 c 46.448,-0.1758 83.373,12.325 122.049,30.973 35.037,16.8939 74.701,57.2022 76.385,76.959 0.731,8.5672 -0.228,9.8346 -10.673,14.1422 -25.327,10.5093 -19.3,27.5064 17.193,14.4855 84.814,-19.1115 223.854,22.1518 304.851,82.6545 7.584,6.797 15.102,11.5424 16.71,10.549 17.954,-10.7426 -5.344,-26.1164 -12.405,-33.54 63.402,-57.1015 194.69,-84.4767 294.067,-58.8846 113.255,29.1664 208.837,126.1737 217.283,246.7656 4.492,49.4744 -27.771,118.3669 -76.079,162.4571 -46.826,41.494 -143.769,62.9501 -212.858,62.7204 -15.279,0.6079 -5.292,42.47 -12.157,65.6144 -3.026,3.0267 -12.636,-16.1718 -19.892,-39.7379 -2.71,-8.7998 -7.501,-17.6332 -10.65,-19.6325 -15.103,-8.3506 -37.007,-10.7109 -65.04,-21.2948 -4.869,0 -11.244,7.1042 -15.611,17.4002 -2.833,6.6741 -55.557,65.7432 -57.311,64.2074 -0.759,-0.6649 27.467,-62.5672 35.035,-76.8378 8.187,-15.4318 4.353,-23.2804 -13.493,-27.631 -13.654,-3.329 -48.533,-16.5845 -51.535,-19.5863 -1.526,-1.5261 2.23,-12.1357 9.231,-26.0564 8.442,-16.7921 11.557,-26.2774 10.933,-33.2971 -0.478,-5.3986 -2.129,-9.9341 -3.665,-10.0801 -1.533,-0.1458 -8.606,11.1882 -15.72,25.1854 -17.229,33.9003 -22.679,41.3889 -48.9,67.1848 -24.724,24.3221 -46.393,41.1985 -65.251,50.8189 -14.616,7.4564 -36.244,14.3578 -45.132,14.4018 -7.478,0.037 -11.015,4.6595 -7.223,9.4475 3.998,5.0494 8.587,28.7934 10.611,54.9104 l 1.775,22.8695 -15.176,-16.8768 c -8.345,-9.2828 -19.404,-22.7717 -24.579,-29.972 -12.232,-17.0258 -14.363,-17.972 -29.016,-12.9235 -19.705,6.7887 -55.791,10.5963 -76.861,8.1118 -28.473,-3.3571 -27.675,-3.52 -27.523,5.5362 0.107,5.7862 -2.369,10.0284 -8.577,14.7577 -10.845,8.2613 -41.954,27.0784 -44.767,27.0784 -1.147,0 3.186,-11.5377 9.627,-25.6376 10.172,-22.2705 11.274,-26.5846 8.41,-32.8744 -2.633,-5.7757 -5.361,-7.2406 -13.485,-7.2406 -24.564,0 -115.727,-40.4719 -115.727,-51.3757 0,-8.3459 -11.998,-13.486 -21.44,-9.1841 -25.293,21.3629 -46.411,43.0555 -90.244,57.8001 -5.716,3.0591 -7.52,12.6282 -2.914,15.4739 2.557,1.5802 4.098,15.8429 7.509,69.4753 1.057,16.6406 0.637,26.446 -1.138,26.446 -6.669,0 -44.028,-72.392 -53.417,-85.5775 -1.943,-9.0172 -9.589,-12.5548 -19.285,-9.3765 -15,5.4242 -76.209,19.8843 -98.337,23.2296 -106.177,11.1192 -217.048,3.2122 -262.064,-95.3181 -15.093,-38.7523 -5.239,-92.7439 20.109,-132.5102 65.77,-94.2482 150.567,-145.8081 263.594,-156.6779 18.66,-0.8072 24.209,-6.2386 16.767,-16.416 -7.099,-9.2801 -51.537,1.2041 -66.535,2.6341 -6.137,1.5401 -7.176,0.2819 -11.204,-13.581 -9.921,-34.1555 3.999,-114.6902 25.878,-149.7262 31.419,-50.3155 76.973,-88.4603 126.906,-105.9512 52.95,-18.5473 94.835,-26.3548 130.961,-26.4919 z m 19.339,53.9052 c -7.828,0 -11.559,2.1326 -18.548,10.6119 -5.592,13.9946 -8.742,13.2703 -12.216,7.1486 -6.486,-11.4339 -25.183,0.2341 -28.053,13.8029 -2.563,12.117 37.127,44.4115 47.465,45.626 10.913,0 29.077,-29.4246 31.667,-51.3004 2.019,-17.0492 -4.915,-25.889 -20.315,-25.889 z m -1.699,20.0136 c 8.085,0 7.695,13.4635 -0.756,26.0018 -3.593,5.3319 -8.452,10.0636 -10.8,10.5155 -5.302,1.0213 -28.41,-16.3911 -28.41,-21.4077 0,-6.1748 4.606,-4.099 8.146,3.6684 20.264,17.7393 21.096,-6.2843 22.936,-10.9176 1.958,-4.9605 5.236,-7.8604 8.884,-7.8604 z m -118.842,18.7068 c -19.306,0.3116 -37.191,9.7374 -48.75,19.4397 -44.596,37.43 4.383,105.2815 52.204,92.1984 -13.493,23.0318 -17.158,29.6444 -8.317,39.3988 5.203,5.2023 10.096,-2.6493 12.059,-12.2871 2.26,-11.1182 13.051,-29.0208 31.126,-25.9517 2.859,0.4852 11.362,4.0346 18.809,8.9662 9.336,6.1838 14.454,8.0472 16.494,6.0052 6.007,-6.005 -0.851,-15.2252 -16.721,-22.4843 l -15.78,-7.2154 c 6.628,-6.4493 11.679,-15.0456 13.288,-23.4601 1.083,-6.0673 -0.268,-8.5596 3.559,-12.1069 15.333,-0.9608 11.563,-15.0367 -0.171,-14.6531 -4.471,-25.6381 -18.784,-40.0489 -44.277,-46.5013 -4.546,-1.0075 -9.076,-1.4202 -13.532,-1.3484 z m 0.883,16.3993 c 11.746,0.085 23.11,3.8955 31.112,11.7761 10.807,10.8072 12.993,21.7305 4.35,21.7305 -2.952,0 -6.898,1.8425 -8.769,4.0956 -2.747,3.3114 -2,4.8279 3.9,7.9192 7.277,3.8136 7.285,3.8534 2.337,13.602 -2.732,5.3769 -6.698,10.3241 -8.817,10.9929 -3.117,0.9841 -3.201,0 -0.448,-5.1385 4.713,-8.805 0.287,-12.1479 -10.628,-8.0279 -6.941,2.6201 -10.68,2.6075 -16.534,-0.058 -8.245,-3.7568 -12.852,-2.4006 -12.852,3.7817 0,5.8318 11.45,12.8271 21.366,13.0574 7.423,0.1715 7.453,3.2366 2.55,5.3436 -23.026,9.8955 -62.676,-16.6255 -58.222,-41.2916 4.43,-24.5385 28.233,-37.9452 50.655,-37.7823 z m 20.496,11.2778 c -1.33,0.1372 -2.674,1.1289 -4.577,3.0321 -3.807,3.8061 -3.974,5.3897 -0.94,9.0454 5.211,6.2766 14.415,5.681 14.415,-0.9337 0,-2.9523 -1.991,-7.0227 -4.429,-9.0458 -1.83,-1.5169 -3.142,-2.2354 -4.469,-2.098 z m -24.67,11.3824 c -0.727,0.025 -1.444,0.1673 -2.131,0.4314 -5.559,2.1322 -5.537,8.7956 0.04,14.3765 5.315,5.3154 12.786,3.0251 12.786,-3.9197 0,-5.7738 -5.611,-11.0693 -10.701,-10.8882 z m 448.965,29.6328 c -3.872,0.4891 -7.927,4.9637 -14.914,13.7696 -10.05,12.6674 -10.704,15.4972 -4.163,18.0074 2.989,1.1469 11.056,-6.9904 14.452,-11.4076 -1.197,26.3362 0.04,68.5834 1.555,119.5112 0.171,23.0046 0.06,39.838 -1.019,64.9611 -4.159,-5.4795 -16.784,-8.1702 -16.784,-3.3084 0,4.2355 5.175,13.8486 13.369,24.8252 3.812,5.1104 8.542,9.2928 10.506,9.2928 6.962,-0.788 17.61,-31.2632 21.868,-44.1981 -0.171,-4.8916 -10.067,-6.3224 -11.436,-0.1136 0,2.3585 -1.289,4.2883 -2.861,4.2883 -1.784,0 -3.032,-19.611 -3.326,-52.1757 -0.366,-39.8943 -1.014,-84.1144 -1.858,-126.5048 l 6.567,8.2249 c 6.231,7.8098 12.965,8.279 12.869,0.8963 -0.02,-1.8727 -4.983,-9.0411 -11.019,-15.9305 -6.25,-7.1339 -9.935,-10.6276 -13.806,-10.1387 z m 294.489,21.2363 c -9.017,0 -55.204,39.3095 -55.204,46.9828 0.754,8.2888 24.263,-11.4689 29.231,-16.9647 -5.094,10.1459 -10.112,17.713 -10.939,28.8665 2.17,5.6507 10.161,4.9935 12.073,-0.9925 3.144,-9.8307 7.297,-16.8951 19.6,-33.3433 12.115,-16.1958 13.894,-24.5488 5.239,-24.5488 z m 47.218,13.7696 c -0.607,-0.022 -1.229,0 -1.864,0.025 -4.627,0.2393 -10.043,1.7794 -16.158,4.3929 -18.939,8.6707 -26.435,20.3668 -21.718,33.9003 6.986,19.3282 18.892,18.5771 36.643,8.1493 14.321,-10.373 20.158,-18.4588 19.285,-26.7181 -1.43,-13.578 -7.099,-19.4969 -16.188,-19.7495 z m 55.287,3.3836 c -3.709,0 -9.149,7.5288 -18.582,25.7131 -7.337,14.1421 -13.338,27.6503 -13.338,30.018 0,2.3678 1.621,4.3051 3.602,4.3051 3.78,0 6.719,-4.0331 18.59,-25.5036 3.979,-7.1997 8.977,-15.6304 11.104,-18.7322 5.54,-8.0755 4.865,-15.8004 -1.376,-15.8004 z m -593.969,1.0931 c -27.273,0.2123 -44.763,2.4771 -46.03,6.3108 -0.721,2.1729 23.878,3.6734 81.246,4.9585 106.412,2.3838 110.865,3.0933 107.849,17.1868 -1.066,4.9739 -2.38,9.5296 -2.919,10.1219 -2.041,2.2393 -180.948,-1.5966 -183.6,-3.9367 -0.47,-0.4138 -2.4,-7.0153 -4.289,-14.6698 -3.643,-14.7584 -9.291,-17.6342 -8.95,-4.5564 0.256,9.808 3.658,29.0861 5.726,32.4303 0.859,1.3924 6.759,1.7018 13.106,0.6867 15.378,-2.4591 30.962,-2.4138 115.366,0.3185 79.66,2.5785 76.278,3.3013 79.835,-17.0653 1.098,-6.2895 2.647,-14.1471 3.439,-17.4589 2.471,-10.3252 -5.182,-14.8786 -20.909,-12.4379 -7.588,1.1776 -26.019,1.686 -40.957,1.1309 -14.939,-0.5552 -45.814,-1.6928 -68.613,-2.5295 -11.028,-0.4046 -21.209,-0.5605 -30.3,-0.4899 z m 656.018,4.2632 c -18.532,-0.6781 -41.646,22.2736 -44.017,37.9789 -1.765,10.442 -1.173,12.7913 4.337,17.2538 3.511,2.841 8.219,5.1635 10.466,5.1635 6.949,0 27.827,-11.8721 34.508,-19.6239 7.768,-9.0133 11.552,-30.0562 6.495,-36.1491 -3.478,-3.0529 -7.511,-4.4669 -11.789,-4.6232 z m -120.666,1.3819 c 3.454,-0.1158 5.487,2.431 6.098,7.6385 0.572,4.8859 -1.714,9.5749 -7.149,14.6656 -6.364,5.8638 -18.686,16.5232 -22.636,3.4424 -1.689,-6.7322 -0.385,-9.2424 9.068,-17.4128 6.291,-5.4387 11.165,-8.2181 14.619,-8.3337 z m 119.619,10.2391 c 1.476,-0.04 2.615,0.4566 3.264,1.6584 2.483,6.4753 -4.44,20.8224 -12.942,26.8062 -8.338,5.7482 -30.412,14.9451 -18.413,-7.5758 2.424,-4.8207 20.128,-20.6721 28.091,-20.8888 z m 72.589,9.9585 c -1.134,-0.047 -2.329,0.1073 -3.572,0.49 -25.661,7.904 -46.749,38.7546 -34.719,50.7855 12.1,11.6753 36.166,-9.8015 45.497,-18.6901 8.98,-12.8223 3.742,-32.1249 -7.206,-32.5854 z m 38.341,11.6087 c -1.001,0.1072 -2.066,0.4495 -2.96,1.0009 -4.48,2.7681 -20.883,38.0277 -19.062,40.9732 3.675,5.9468 9.966,1.1236 18.075,-13.8447 8.759,-16.1725 10.843,-25.0454 6.512,-27.7233 -0.628,-0.3876 -1.564,-0.514 -2.565,-0.4061 z m -42.106,1.4782 c 7.061,0 4.429,8.7902 -5.65,18.8702 -11.118,11.1164 -19.186,12.9639 -16.801,3.8486 1.939,-7.4188 17.059,-22.7188 22.451,-22.7188 z m 93.236,11.4369 c -5.716,0 -21.978,32.189 -19.512,38.6198 2.738,7.1344 8.686,1.9777 18.378,-15.9388 9.502,-17.5691 9.759,-22.681 1.134,-22.681 z m -896.163,4.2548 c -1.262,-0.1114 -2.518,0.8073 -3.747,1.6751 -8.339,7.6464 -1.368,11.1569 -4.034,40.3159 -9.963,-1.6307 -17.496,-2.8843 -27.161,-4.3848 -1.572,-0.2238 1.88,6.2278 2.157,9.3723 0.394,4.5088 -8.886,3.9779 -27.062,12.6347 -28.267,13.4627 -44.3,28.9584 -65.075,62.9048 -12.717,20.7833 -15.839,24.29 -17.537,19.6953 -2.643,-7.1471 -10.847,-10.4365 -12.869,-5.1638 -1.708,4.4524 11.247,33.6047 17.883,40.2406 3.801,3.8033 3.621,4.28 -1.639,4.28 -3.326,0 -5.922,1.8572 -5.922,4.2337 0,4.1385 -1.467,5.5642 14.28,7.6218 13.377,0.4355 53.428,1.8895 54.333,0.7664 19.655,-0.6394 43.528,-1.166 53.055,-1.1725 29.806,-0.022 28.096,5.9968 27.833,-98.0613 -0.129,-49.6066 -1.126,-91.6421 -2.22,-93.4129 -0.757,-1.0397 -1.517,-1.4786 -2.275,-1.5453 z m -130.726,193.4256 c -5.639,-0.1843 -7.618,-0.2248 1.823,0.2473 -0.699,-0.085 -1.182,-0.1629 -1.823,-0.2473 z m 161.619,-186.1179 c -2.176,-0.2631 -4.446,0.5451 -5.69,2.5586 -0.914,1.4765 0.377,12.5341 2.865,24.5741 3.229,15.6379 3.962,28.3075 2.562,44.3528 -1.076,12.354 -1.171,24.5205 -0.215,27.0365 1.521,3.9615 5.113,4.2664 26.802,2.2781 32.947,-3.0198 144.645,-2.9525 160.104,0.097 11.345,2.2372 12.305,1.9223 14.887,-4.8704 1.958,-5.1466 1.477,-12.0858 -1.649,-23.8326 -2.869,-10.7808 -3.815,-22.0675 -2.702,-32.2963 0.942,-8.648 2.02,-18.9387 2.391,-22.8695 l 0.675,-7.1486 -42.883,-0.1801 c -117.228,-0.488 -150.467,-1.7623 -152.028,-5.8336 -0.873,-2.2694 -2.951,-3.6022 -5.127,-3.8652 z m 501.024,5.6535 c -3.956,0.067 -19.385,20.2879 -19.385,25.4073 0,6.3984 10.283,2.371 18.167,-7.115 8.002,-9.6293 8.587,-18.4152 1.218,-18.2923 z m -110.482,2.0268 c -6.453,-0.022 -13.746,-0.022 -21.981,0 l -68.459,0.163 c 1.445,28.6622 7.299,47.6989 6.559,85.6069 -0.718,28.5429 -0.07,44.0168 1.889,44.8972 8.021,3.4993 34.298,-2.8204 60.165,-2.9439 48.575,-1.6645 55.748,-2.6611 55.748,-7.7475 0,-2.8036 -10.672,-3.365 -47.887,-2.5211 -32.116,0.7284 -46.945,0.1372 -45.028,-1.7923 1.572,-1.5822 14.859,-12.6264 29.525,-24.5446 l 26.663,-21.6719 13.057,9.9712 c 21.045,16.0685 25.595,12.3256 5.892,-4.8453 l -12.077,-10.528 8.141,-6.4031 c 13.667,-10.7493 21.714,-19.756 21.714,-24.3018 0,-5.052 -1.499,-4.296 -22.162,11.1856 -13.374,10.0198 -15.601,10.8204 -20.397,7.3285 -17.653,-12.8559 -32.295,-24.2308 -50.654,-35.303 -10.198,-5.3189 -13.615,-4.9303 52.474,-5.9719 30.269,-0.4769 55.133,-1.6263 55.25,-2.5545 0.832,-6.6113 -3.254,-7.9145 -48.432,-8.0322 z m 155.522,6.487 c -10.075,0 -26.574,15.6272 -30.567,28.9544 -3.99,13.5752 -0.99,30.4079 18.933,31.0817 11.272,0 14.455,-1.5287 25.777,-12.3749 11.541,-11.0606 12.914,-13.7303 12.914,-25.156 0,-13.0225 -3.669,-19.6449 -10.884,-19.6449 -4.856,0.1094 1.066,15.5223 -0.06,20.0092 -1.108,13.4035 -32.613,41.1749 -34.798,15.943 0,-10.697 10.543,-25.8011 20.136,-28.8457 8.109,-2.5736 7.031,-9.9668 -1.454,-9.9668 z m -539.745,2.8603 38.252,0.3559 c 21.041,0.1951 61.413,1.1611 89.716,2.1442 l 51.459,1.7881 v 20.0092 c 0,11.0068 1.063,25.8027 2.359,32.8784 l 2.351,12.865 -76.689,0.3559 c -42.18,0.1951 -79.908,0.991 -83.841,1.7715 -15.585,3.0946 -17.97,-0.3474 -18.445,-26.6177 -0.24,-13.2618 -1.501,-28.9333 -2.803,-34.8297 z m 610.541,10.4695 c -2.797,0.021 -5.869,0.326 -9.236,0.9631 -11.727,0.7961 -26.784,35.8949 -14.644,48.4486 7.678,7.6797 18.877,6.0308 35.889,-5.2809 8.716,-5.7943 11.646,-9.752 12.32,-16.6379 1.297,-13.6525 -4.758,-27.6277 -24.329,-27.4929 z m -298.018,3.8234 c 15.377,1.9142 45.662,27.5926 60.422,38.892 -19.664,15.1566 -36.493,30.2964 -58.964,41.1576 -0.89,0 -1.617,-12.0419 -1.617,-26.76 0,-14.7181 -0.816,-32.7317 -1.818,-40.0268 -1.374,-10.0324 -0.894,-13.2628 1.977,-13.2628 z m 360.498,0.4521 c -1.793,0.099 -4.156,1.4813 -6.93,4.5523 -5.455,6.0373 -22.093,40.6349 -22.095,45.9485 0,7.762 10.21,1.5301 15.88,-9.6907 3.232,-6.3954 8.713,-16.2218 12.182,-21.8349 6.091,-9.8571 5.783,-18.2851 1.696,-18.9415 -0.231,-0.037 -0.476,-0.047 -0.733,-0.035 z m 48.226,2.2407 c -3.253,0.2395 -7.105,5.6177 -10.23,15.1765 -2.697,8.255 -6.753,18.6631 -9.011,23.1292 -2.26,4.4658 -3.409,9.9321 -2.56,12.1487 1.914,4.9856 5.804,5.1687 9.691,0.4565 5.627,-6.8227 18.365,-42.1971 16.731,-46.4595 -1.064,-2.7721 -2.442,-4.2125 -3.98,-4.4306 -0.214,-0.03 -0.422,-0.037 -0.641,-0.022 z m -113.82,7.002 c 1.54,0 3.371,0.5325 5.869,1.4824 10.05,3.8208 10.172,12.2922 0.292,20.0636 -11.097,8.7284 -18.196,7.8153 -18.196,-2.3366 0,-4.5431 2.266,-11.0594 5.039,-14.4814 2.68,-3.3101 4.432,-4.7395 6.996,-4.728 z m -651.472,3.9992 c 0,0 0.873,105.1506 -5.491,121.735 -0.924,2.4083 -5.508,7.4245 -10.72,7.2448 -37.547,-1.2942 -64.01,4.4738 -104.809,1.717 0,-0.6187 6.995,-7.7374 15.541,-15.8214 9.409,-8.8986 14.927,-16.2949 13.988,-18.7446 -2.335,-6.0849 -8.048,-4.9114 -18.365,3.769 l -9.287,7.8146 1.879,-9.3976 c 6.946,-28.7526 43.542,-73.4622 70.415,-81.7121 16.654,-8.7515 15.258,-1.7449 24.074,-6.3528 -4.47,17.1994 15.155,-8.5433 22.775,-10.2519 z m 824.836,4.6612 c -10.258,0.5832 -20.563,10.3455 -29.369,28.0163 -9.441,18.9416 -9.272,21.7174 1.565,26.2741 12.294,5.1694 28.078,0.7784 39.473,-10.9803 17.062,-17.6027 13.47,-38.7993 -7.281,-42.9963 -1.46,-0.295 -2.924,-0.3972 -4.388,-0.3138 z m 66.367,10.8547 c -2.927,-0.2675 -6.329,2.1999 -8.058,7.1568 -1.546,4.4382 -6.728,13.8137 -11.516,20.8343 -4.788,7.0208 -8.172,13.6253 -7.522,14.6781 0.652,1.053 3.892,1.2085 7.2,0.3436 7.164,-1.8736 26.189,-30.4255 24.862,-37.3132 -0.697,-3.6268 -2.689,-5.4916 -4.966,-5.6996 z m -63.458,1.6415 c 11.394,-0.7011 5.216,20.817 -8.673,27.9996 -14.411,7.4523 -18.535,4.1878 -11.934,-9.4393 5.233,-10.8074 11.891,-17.1119 19.451,-18.4222 0.405,-0.07 0.789,-0.1157 1.156,-0.1371 z m 100.76,17.9279 c -3.244,0.2846 -7.683,5.2682 -13.18,14.8711 -4.713,8.2322 -8.989,16.5779 -9.503,18.5434 -1.132,4.3423 3.647,4.6054 11.102,0.6156 6.853,-3.6678 17.919,-24.7688 15.835,-30.1982 -0.915,-2.388 -2.127,-3.6613 -3.624,-3.8276 -0.214,-0.023 -0.416,-0.023 -0.63,0 z m -409.098,0.1801 c -2.298,0 -3.473,4.3566 -4.423,13.8993 -1.216,11.242 -6.362,21.3523 -9.913,31.9236 0,3.915 10.447,2.7703 14.021,-1.5369 1.808,-2.1769 5.007,-10.6091 7.116,-18.7363 3.468,-13.3738 3.347,-15.3716 -1.26,-21.0562 -2.384,-2.9385 -4.162,-4.4977 -5.541,-4.4935 z m 52.577,14.0082 c -3.606,0.2058 -6.876,1.5179 -6.876,3.7606 0,2.1075 -3.838,10.7913 -8.525,19.2974 -4.689,8.5063 -8.549,17.0723 -8.576,19.0377 -0.02,1.9655 1.848,3.5721 4.174,3.5721 5.217,0 31.197,-38.7614 28.695,-42.8118 -1.34,-2.166 -5.285,-3.0624 -8.892,-2.856 z m 58.345,8.3841 c -5.418,-0.5209 -13.618,9.2795 -19.72,25.135 -2.03,5.2742 -1.505,6.4325 2.923,6.4325 6.52,0 23.281,-21.7945 21.111,-27.451 -1.008,-2.6255 -2.506,-3.9431 -4.314,-4.1165 z m -576.86,3.7523 c -2.806,0.2058 -6.184,1.4648 -9.867,4.2295 -9.531,6.7778 -16.476,15.9231 -6.671,23.8202 3.538,3.3951 11.581,8.5789 17.869,11.5206 13.738,6.4249 20.01,5.8633 20.01,-1.7881 0,-4.317 -2.226,-5.8938 -9.289,-6.5749 -5.109,-0.4926 -9.293,-2.0995 -9.293,-3.5723 39.133,-2.7752 151.575,2.2763 168.347,2.9482 -1.678,17.4018 7.533,9.2098 15.808,2.1107 19.006,-12.1297 7.003,-15.322 0.54,-21.2446 -8.651,-7.9284 -11.441,-9.1217 -14.807,-6.3279 -2.282,1.8934 -3.811,5.5238 -3.397,8.0657 0.667,4.1014 -4.558,4.6187 -46.418,4.5817 -39.92,-2.4289 -80.256,0.3859 -120.073,-3.3463 8.959,-6.1641 5.663,-15.0372 -2.759,-14.4228 z m 628.478,2.0853 c -1.391,0 -7.335,9.7034 -13.204,21.5629 -8.913,18.0119 -9.983,21.9885 -6.503,24.1386 4.442,2.7458 11.503,-1.2386 11.503,-6.4912 0,-1.6351 4.006,-9.2132 8.901,-16.8391 7.273,-11.335 8.248,-14.6396 5.362,-18.1163 -1.94,-2.339 -4.665,-4.2549 -6.059,-4.2549 z m 68.52,5.821 c -6.666,-0.035 -14.117,1.3796 -19.676,4.2548 -14.632,7.5659 -20.569,31.6509 -10.725,43.5112 2.875,3.1219 9.535,2.7958 13.697,3.589 15.71,0 34.739,-17.2744 35.149,-31.9067 0.15,-5.7577 -1.404,-12.5118 -3.476,-15.0091 -2.423,-2.9177 -8.303,-4.4038 -14.969,-4.4392 z m -1080.406,6.6546 c -6.917,-0.1287 -13.817,0.3596 -20.571,1.5243 -68.699,14.8025 -98.261,38.2342 -119.528,94.7403 -13.341,36.5309 -14.029,104.3703 9.64,136.9618 11.173,18.3785 47.877,17.6174 65.414,-8.9158 22.949,-34.7258 33.18,-53.5632 85.371,-60.8737 55.012,-2.7696 87.269,-36.8749 82.918,-88.3289 -5.602,-42.9503 -54.825,-74.2069 -103.244,-75.108 z m 1081.258,3.6266 c 1.503,-0.058 2.744,0.2605 3.551,1.047 4.646,4.5286 -1.163,17.2932 -10.445,22.9531 -11.179,6.7667 -18.212,9.7563 -13.642,-9.7198 2.56,-6.7348 14.02,-14.0311 20.536,-14.2803 z m -1083.947,11.5038 c 29.593,0.3784 65.197,10.3243 80.494,35.2361 26.023,42.384 7.391,88.0233 -59.132,97.1945 -62.571,16.0009 -76.805,24.9562 -94.029,59.1566 -13.395,25.5078 -32.551,11.5424 -45.559,-10.4023 -7.059,-13.9987 -9.002,-22.1506 -10.558,-44.3153 -2.108,-29.8935 -2.253,-45.9843 16.458,-78.5001 19.439,-28.4723 46.515,-46.085 85.713,-55.7563 7.554,-1.7998 16.748,-2.7393 26.613,-2.6132 z m 1136.285,0.9842 c -4.26,0 -21.128,24.4226 -21.223,30.7298 -0.128,8.189 9.032,2.5905 18.32,-11.2023 9.945,-14.7648 10.652,-19.5275 2.903,-19.5275 z m 48.985,0.9046 c -0.6,0.05 -1.149,0.2161 -1.611,0.5023 -5.183,3.2023 -22.908,32.0336 -22.908,37.2589 0,8.5234 8.194,2.9589 21.16,-14.3684 10.802,-14.4346 12.228,-17.7726 8.979,-21.0645 -1.593,-1.6137 -3.822,-2.4795 -5.62,-2.3283 z m -1177.95,9.3262 c -3.025,0.062 -5.975,0.8636 -8.48,2.4499 -4.996,3.1632 -1.659,8.8529 5.189,8.8529 2.858,0 6.921,2.0762 9.029,4.6148 3.298,3.9757 2.731,5.5587 -4.098,11.4327 -9.672,8.3208 -16.224,8.7206 -18.217,1.1057 -0.954,-3.6489 -3.899,-5.7206 -8.141,-5.7206 -3.653,0 -7.44,-1.2836 -8.411,-2.856 -0.974,-1.5725 -3.619,-2.8603 -5.886,-2.8603 -3.03,0 -4.119,3.7281 -4.119,14.1002 0,15.4689 -4.29,19.2508 -17.953,15.8217 -4.807,-1.2066 -7.517,-0.4126 -8.649,2.5334 -1.864,4.8574 2.431,9.2202 10.877,11.0474 6.733,1.4569 14.663,-1.9257 23.605,-10.0716 4.545,-4.1392 10.527,-5.9358 20.237,-6.0764 27.018,-0.3917 44.336,-23.5126 29.059,-38.7916 -3.745,-3.7458 -8.999,-5.6864 -14.042,-5.5822 z m 1229.191,1.9724 c -0.808,-0.026 -1.62,-0.022 -2.437,0 -7.833,0.2947 -15.843,3.1767 -20.7,9.2676 -11.382,14.274 -10.566,39.3033 1.378,42.3092 6.547,1.6475 17.784,-0.8784 25.57,-5.7457 6.16,-3.8509 11.2,-12.8603 16.001,-28.5941 3.157,-10.3396 -7.686,-16.8741 -19.812,-17.2455 z m -1290.166,4.5102 c -4.385,0.2645 -10.749,3.5762 -10.749,6.579 0,2.1751 1.045,3.9575 2.316,3.9575 3.757,0 13.538,-7.9745 11.85,-9.6613 -0.713,-0.7136 -1.955,-0.9634 -3.417,-0.8752 z m 1289.635,6.1561 c 8.146,0 7.208,12.614 -1.647,22.1576 -8.598,9.2683 -16.407,8.4852 -16.407,-1.6459 0,-8.88 10.238,-20.5117 18.054,-20.5117 z m -360.515,1.4656 c -0.489,0.04 -0.914,0.1566 -1.236,0.356 -4.515,2.791 -16.891,30.2509 -15.393,34.1557 2.664,6.9416 9.598,1.211 17.933,-14.8206 6.816,-13.1104 7.442,-15.9926 3.949,-18.1792 -1.713,-1.0718 -3.782,-1.6334 -5.253,-1.5119 z m 55.096,1.3947 c -7.256,0 -15.666,1.325 -18.691,2.9439 -10.857,5.8115 -17.5,27.842 -12.4,41.1324 2.635,6.8662 21.294,5.7727 32.708,-1.9179 5.257,-3.5432 11.792,-10.2973 14.517,-15.009 4.376,-7.5659 4.493,-9.6551 1.006,-17.861 -3.643,-8.5696 -4.975,-9.2884 -17.14,-9.2884 z m -548.45,7.9944 c -0.66,0.022 -1.349,0.065 -2.069,0.1372 -15.258,1.5564 -26,8.2783 -24.956,15.6163 0.674,4.7255 3.146,6.4851 10.048,7.1527 6.054,0.5859 9.747,2.7629 10.914,6.4324 2.3,7.2493 12.808,7.4147 12.808,0.2015 0,-5.1671 5.712,-5.3365 169.941,-5.0042 l 169.937,0.3433 6.143,6.5915 c 6.859,7.3633 15.625,7.3363 15.625,-0.049 0,-4.8941 -28.081,-30.8389 -33.376,-30.8389 -1.591,0 -3.554,2.5134 -4.357,5.5866 -1.068,4.0869 -5.026,6.1562 -14.742,7.7097 -17.712,2.8326 -280.186,2.5853 -302.022,-0.2847 -14.305,-1.8802 -16.047,-2.671 -10.483,-4.7699 9.284,-3.5018 6.467,-9.1054 -3.411,-8.8239 z m 549.194,1.5202 c 3.224,-0.1715 3.593,1.5875 3.593,7.3746 0,5.695 -2.435,10.3414 -7.53,14.3473 -10.384,8.1692 -18.2,7.7811 -18.2,-0.9044 0,-8.8808 7.966,-17.8313 17.87,-20.0806 1.801,-0.4089 3.193,-0.6796 4.267,-0.7369 z m 53.931,7.7097 c -2.712,0.1157 -5.48,1.8577 -6.604,4.929 -1.007,2.7518 -6.758,12.3316 -12.776,21.2866 -6.021,8.9549 -10.944,17.6387 -10.944,19.2974 0,4.1828 3.37,3.7692 10.612,-1.3026 8.005,-5.6069 27.464,-37.6392 25.144,-41.3921 -1.246,-2.0166 -3.322,-2.9092 -5.432,-2.8183 z m -936.896,4.816 c -9.19,-0.2901 -13.26,24.7593 -5.373,36.0191 5.596,7.9915 13.208,8.0431 27.19,0.1844 13.822,-7.7689 15.665,-12.6078 9.296,-24.4315 -5.398,-10.0273 -17.746,-14.0041 -13.717,-4.4183 5.193,12.356 4.788,17.3662 -1.693,20.8344 -5.512,2.9503 -7.084,2.6675 -10.426,-1.8887 -2.166,-2.9507 -3.154,-7.9404 -2.192,-11.0852 3.292,-10.7535 2.812,-14.0736 -2.181,-15.1053 -0.308,-0.065 -0.609,-0.099 -0.904,-0.1094 z m 1004.276,2.877 c -1.996,-0.037 -4.523,0.085 -7.783,0.2974 -17.569,1.1379 -24.96,7.5196 -32.715,28.2506 -6.876,18.3797 -6.772,16.5713 -1.252,22.0908 6.196,6.1963 10.877,5.6696 26.328,-2.9565 21.973,-12.267 29.973,-25.6132 24.486,-40.8394 -1.857,-5.1531 -3.071,-6.7318 -9.064,-6.8429 z m -4.517,5.4316 c 0.849,0.022 1.381,0.5555 1.486,1.7253 0.941,10.4498 -1.522,15.9339 -10.942,24.3855 -9.209,8.2637 -17.979,12.0423 -17.979,7.7474 0,-9.0067 21.498,-34.015 27.435,-33.8582 z m -1026.93,0.039 c -1.317,-0.025 -2.693,0.215 -4.095,0.7536 -4.702,1.8043 -4.732,2.3185 -0.391,7.1152 6.178,6.8261 5.957,8.0384 -2.483,13.5684 -5.825,3.8161 -7.972,4.0171 -11.501,1.0887 -2.506,-2.0806 -3.623,-5.8492 -2.645,-8.9282 2.12,-6.6822 -5.65,-10.2098 -11.604,-5.2684 -6.339,5.2605 -5.158,13.6164 3.085,21.8605 8.538,8.5369 19.021,7.8491 33.084,-2.1652 6.752,-4.8069 8.315,-7.8304 7.622,-14.741 -0.805,-8.0228 -5.373,-13.1747 -11.072,-13.2836 z m 1101.132,1.1222 c -3.698,-0.1694 -8.298,3.1427 -11.447,9.23 -2.646,5.1101 -7.921,14.4358 -11.718,20.7253 -2.339,3.8955 -12.247,15.518 -1.499,15.7252 6.87,0 32.226,-35.2325 29.838,-41.4591 -1.061,-2.7633 -2.955,-4.1193 -5.174,-4.2214 z m -1223.688,4.8119 c -1.022,-0.064 -1.869,0.7665 -2.941,2.3661 -4.052,6.051 -3.71,7.8238 2.761,14.2929 6.723,6.7236 5.408,6.5242 16.785,2.5588 4.985,-1.7379 10.369,-5.5973 11.965,-8.5766 3.397,-6.3501 0.609,-6.9514 -9.951,-2.14 -6.272,2.8581 -7.934,2.4005 -12.94,-3.5722 -2.755,-3.2863 -4.363,-4.846 -5.679,-4.929 z m 1267.255,4.5437 c -8.366,-0.2595 -17.599,3.6712 -22.785,10.6622 -7.066,9.523 -9.876,27.1781 -5.223,32.7862 5.707,6.8765 19.339,5.0636 33.096,-4.4015 11.354,-7.8114 12.663,-9.8775 12.663,-19.9464 0,-8.9059 -1.519,-12.229 -7.341,-16.0434 -2.982,-1.9544 -6.606,-2.9392 -10.41,-3.0571 z m -2.099,13.451 c 8.154,0 7,9.8868 -1.977,16.9481 -9.228,7.2596 -12.478,7.4775 -12.478,0.8417 0,-7.6994 8.198,-17.7898 14.455,-17.7898 z m -1202.171,3.7901 c -2.78,-0.037 -7.106,0.6853 -13.849,2.1567 -6.904,1.5061 -2.86,17.1743 -2.86,10.8339 10.041,4.0515 23.98,-2.8842 21.272,-10.5868 -0.551,-1.5696 -1.784,-2.3663 -4.563,-2.4038 z m 402.869,0.1844 c -13.459,0 -16.255,4.6018 -8.12,13.5853 4.653,5.1393 5.422,11.3537 5.9,47.7785 0.532,40.6014 0.736,41.8999 6.768,42.8285 11.552,5.1468 4.575,-33.9255 4.146,-44.6418 l -2.073,-45.5968 6.739,-1.5661 c 6.812,-1.586 34.913,-1.0674 118.237,2.1859 54.581,2.1311 63.317,3.4026 65.883,9.6069 1.074,2.597 3.004,21.1197 4.288,41.1576 1.285,20.0377 3.152,39.0121 4.153,42.1668 1.041,3.275 4.328,5.7373 7.66,5.7373 5.171,0 5.625,-1.2251 3.979,-10.7207 -1.022,-5.8964 -3.027,-24.8226 -4.451,-42.0538 -4.608,-55.7095 -7.539,-63.3242 -21.502,-55.8526 -5.298,2.8363 -16.098,3.2697 -44.93,1.7966 -20.874,-1.0665 -57.247,-2.5818 -80.833,-3.3671 -23.585,-0.7852 -50.327,-2.0269 -59.425,-2.7598 -2.356,-0.1908 -4.496,-0.2838 -6.419,-0.2847 z m 854.943,0.2931 c -2.997,-0.04 -6.039,1.8223 -6.769,5.62 -0.592,3.0783 -5.377,11.9778 -10.634,19.7789 -5.252,7.8013 -8.846,15.3243 -7.984,16.7178 3.388,5.4815 11.353,0.038 21.785,-14.8918 6.007,-8.6011 10.551,-18.2407 10.096,-21.4204 -0.547,-3.8156 -3.499,-5.7627 -6.494,-5.8045 z m -1039.306,3.811 c -4.839,-0.2341 -9.833,3.0947 -10.611,8.4676 -1.075,7.3989 -21.083,21.9152 -30.392,22.0488 -12.8,0.1843 -31.972,14.2545 -31.972,23.4643 0,2.8712 -2.051,5.2179 -4.558,5.2179 -11.244,0 -104.868,52.9342 -163.384,92.3784 -8.812,5.9404 -12.129,15.3415 -7.167,20.3025 5.99,5.9911 38.245,-4.3586 72.695,-23.326 12.072,-6.6464 28.297,-14.5856 36.052,-17.6432 35.361,-13.9382 80.658,-43.8006 80.658,-53.1766 0,-2.2327 4.584,-2.5913 15.009,-1.1682 12.938,1.7663 17.117,1.0055 30.31,-5.5155 23.114,-11.6706 32.595,-37.1486 19.45,-68.3824 -1.722,-1.7218 -3.892,-2.5613 -6.09,-2.6676 z m 714.864,9.0748 c -5.931,0 -24.238,32.5832 -21.832,38.8545 2.552,6.6449 9.387,4.5657 12.904,-3.9241 1.811,-4.3749 6.432,-11.6049 10.268,-16.0684 3.844,-4.5291 7.815,-13.9822 -1.34,-18.862 z m -209.552,5.7207 c -5.637,0 -5.77,1.1093 -4.051,33.1923 0.979,18.2561 3.264,34.9777 5.076,37.1626 1.814,2.1846 5.219,3.9742 7.567,3.9742 3.232,0 3.791,-1.9105 2.296,-7.8605 -1.087,-4.3241 -2.668,-21.0498 -3.515,-37.1667 -1.423,-27.0832 -1.985,-29.3019 -7.373,-29.3019 z m -48.441,0.913 c -0.776,0.1071 -1.671,0.4997 -2.697,1.2395 -2.811,2.8103 -2.79,8.6797 0.107,28.5648 2,13.7652 4.321,30.8197 5.155,37.8955 0.836,7.0757 2.757,14.3932 4.278,16.2652 3.198,3.9438 10.928,1.8205 10.898,-2.9942 -0.02,-1.7973 -2.581,-13.9604 -5.716,-27.0322 -3.133,-13.0716 -5.719,-29.1557 -5.741,-35.7387 -1.047,-5.7622 -0.84,-18.9555 -6.277,-18.1999 z m 310.881,8.1619 c -5.877,0.3199 -21.534,20.768 -21.534,28.5189 0,9.1053 7.403,5.8122 18.26,-8.1201 10.806,-13.8714 11.734,-18.8282 3.809,-20.3653 -0.171,-0.032 -0.345,-0.043 -0.535,-0.035 z m 58.256,7.1443 c -3.015,0.088 -5.742,3.9097 -12.455,15.3609 -5.584,9.5299 -10.155,19.2821 -10.155,21.6718 0,8.5575 9.94,2.2815 20.633,-13.0241 12.473,-17.8523 12.732,-18.9877 5.243,-22.9951 -1.227,-0.6565 -2.261,-1.0425 -3.266,-1.0135 z m -1081.689,4.6779 c -12.039,-0.6413 -24.22,9.1553 -29.169,16.8725 -9.089,13.033 -3.259,33.2697 7.931,34.3106 6.492,0.6039 16.731,0.022 25.382,-8.6393 16.497,-16.4973 17.064,-36.3299 0.984,-41.5933 -1.691,-0.5541 -3.409,-0.859 -5.128,-0.9505 z m 253.214,1.2395 c 0.561,0.03 0.906,0.9949 0.921,2.8015 0.02,2.659 -1.565,5.8641 -3.529,7.1235 -4.308,2.7589 -22.158,9.1625 -22.158,7.9484 0,-0.4726 4.825,-3.7915 10.721,-7.3745 5.896,-3.5831 11.667,-7.8678 12.822,-9.5231 0.472,-0.675 0.886,-0.9936 1.223,-0.9758 z m -18.895,0.2387 c 0.975,-0.075 1.644,0 1.902,0.2555 0.783,0.7827 -3.465,3.4669 -9.441,5.9633 -15.56,6.5013 -25.284,8.6628 -23.103,5.1342 1.885,-3.0505 23.815,-10.831 30.642,-11.353 z m 915.798,0.8459 c -7.652,-0.1866 -11.076,1.3985 -16.868,6.9476 -14.82,14.1992 -18.35,36.2782 -6.274,39.2604 13.646,3.37 40.639,-9.7183 44.874,-21.7597 4.656,-13.2412 -2.767,-23.1561 -18.172,-24.2682 -1.284,-0.092 -2.466,-0.1544 -3.56,-0.1801 z m 4.614,12.1068 c 0.639,0.037 1.18,0.1823 1.604,0.4441 4.945,3.055 3.009,9.391 -4.732,15.478 -13.066,10.2788 -23.63,6.093 -14.531,-5.7581 4.186,-5.4511 13.195,-10.4155 17.659,-10.164 z m -1159.279,0.4985 c 2.358,0 4.288,2.3278 4.288,5.176 0,7.0466 -8.434,17.2036 -15.311,17.2036 -4.425,0.5777 -5.898,-4.0496 -4.702,-7.0062 0,-5.2564 10.348,-15.3734 15.725,-15.3734 z m 1218.22,4.4265 c -4.084,0.2365 -9.903,7.1027 -16.396,19.7832 -5.231,10.2203 -9.52,19.6335 -9.531,20.9221 -0.02,1.2887 2.822,1.9347 6.291,1.4323 7.64,-1.1068 26.662,-31.4105 24.029,-38.2765 -1.039,-2.7084 -2.537,-3.9685 -4.393,-3.8611 z m -1039.75,16.3659 c 1.099,-0.099 1.956,0.022 2.308,0.3685 0.705,0.7052 0.107,3.3875 -1.341,5.9633 -2.268,4.055 -3.078,4.129 -6.05,0.5487 -2.74,-3.3001 -2.468,-4.5065 1.34,-5.9676 1.312,-0.5035 2.646,-0.8135 3.743,-0.9129 z m -24.532,10.6538 c 5.724,0 11.387,7.7103 9.423,12.8271 -2.119,5.5205 -8.691,5.5592 -13.242,0.075 -4.195,-5.0552 -1.872,-12.9025 3.819,-12.9025 z m -21.751,11.5248 c 5.21,2.9602 8.692,9.4147 12.466,14.23 -30.08,14.3139 -55.328,26.3823 -85.406,40.3409 -33.815,15.5254 -29.201,8.5395 10.794,-16.3322 21.285,-13.2536 40.906,-27.099 62.146,-38.2387 z m -29.532,175.1877 c -6.185,0.6819 -10.358,11.7497 -20.429,32.8743 l -10.294,21.5922 c -1.17,-11.4137 -13.225,-4.6939 -21.285,-4.6275 -17.895,-5.6884 -28.693,-3.5119 -41.506,8.4928 -12.168,11.4019 -16.673,19.4882 -19.418,48.39 -1.848,19.7601 0.544,21.2287 13.644,38.5779 0.07,6.232 -9.493,41.2102 -17.844,65.2793 -18.708,53.9135 -18.152,99.5889 1.684,138.4527 18.07,35.4101 62.089,55.2254 121.557,54.7259 17.616,-0.1908 38.106,-2.6158 57.567,-4.8326 6.49,0.3265 6.786,1.3075 7.466,24.641 1.029,35.3137 6.578,86.0168 11.031,100.775 1.882,5.1596 10.191,5.4664 14.285,0.9799 0.849,-2.2122 -0.627,-10.2542 -3.279,-17.8694 -3.45,-9.8967 -5.247,-27.3557 -6.304,-61.2129 -2.051,-65.7995 -2.455,-65.1199 52.172,-88.4629 18.879,-8.0676 52.565,-8.8388 67.879,-1.5579 25.608,12.1736 44.839,49.7217 61.261,119.6159 4.515,19.2225 6.007,22.1422 10.945,21.4414 8.18,-1.1602 8.449,-9.6848 1.278,-40.0728 -7.885,-33.0534 -22.356,-113.4401 -78.868,-121.3035 -34.679,-6.1473 -96.577,12.4396 -122.712,39.7002 -75.635,19.9435 -148.913,14.6265 -180.258,-35.5753 -14.849,-28.7138 -16.899,-72.4704 -5.206,-111.0102 4.031,-13.2842 10.371,-35.5744 14.087,-49.533 3.718,-13.9586 7.815,-26.2886 9.108,-27.4007 1.295,-1.1122 8.686,-4.3552 16.427,-7.2072 25.965,-10.3714 48.904,-39.263 49.87,-71.9128 -1.001,-8.175 1.786,-13.7498 10.618,-33.6406 8.889,-20.0262 20.826,-35.3242 9.216,-39.0092 -0.489,-0.1544 -0.966,-0.2555 -1.428,-0.3057 -0.432,-0.047 -0.852,-0.05 -1.264,0 z m 457.892,13.979 c -4.267,0.1479 -8.278,2.0155 -11.465,6.4114 -5.954,8.3605 -8.014,28.6613 -2.912,28.6613 6.931,4.2739 -0.765,9.4327 -7.86,8.5976 -24.299,0.3289 -48.779,19.2064 -67.545,33.8539 -4.077,4.5388 -6.599,5.3039 -10.531,3.1996 -13.015,-6.9653 -24.601,1.5266 -15.62,11.4495 6.239,6.8947 5.559,10.8783 -5.642,33.1171 -9.9,19.7969 -14.891,49.3141 -3.023,75.2838 16.643,32.842 40.205,48.8428 77.343,52.519 45.137,3.995 83.854,-23.6172 109.77,-66.0246 7.046,-13.956 14.591,-40.6753 14.591,-51.6607 0,-4.8751 2.436,-11.2846 5.418,-14.2678 7.605,-8.5965 20.31,-53.31 0.349,-59.7598 -5.622,-2.0793 -7.008,-4.6875 -7.291,-13.7234 -0.699,-22.4205 -1.287,-24.0754 -10.625,-29.8421 -10.596,-6.5443 -21.081,-5.4576 -28.195,2.9189 -4.486,5.2791 -4.715,5.2303 -8.472,-1.7923 -4.792,-8.4848 -17.383,-19.3213 -28.29,-18.9414 z m 462.227,61.6233 -9.777,10.8253 -8.51,-4.883 c -16.5,-9.4699 -24.894,2.2699 -9.472,13.2502 9.875,7.0323 10.208,9.2889 4.046,27.4384 -4.772,14.3165 -4.233,20.8826 0.548,35.6021 2.684,11.0353 36.942,7.0033 49.29,7.0005 22.061,0 32.353,1.1305 35.721,3.9238 14.186,13.2664 3.491,37.9214 -29.947,41.5722 -7.586,1.1029 -5.362,0.928 -14.601,2.3946 -27.436,11.7416 30.017,36.9184 47.589,38.9473 15.667,1.8093 47.57,-2.6799 69.202,-11.6714 19.769,-8.2159 36.781,-24.7334 52.013,-50.5005 8.763,-14.8218 9.385,-15.3248 7.882,-6.3906 -0.896,5.334 -3.879,11.3745 -6.625,13.422 -4.664,3.4774 -4.356,4.9673 4.7,22.6349 8.012,15.6359 12.223,20.3758 24.302,27.363 11.305,6.542 17.513,8.2818 27.47,7.6929 9.387,-0.5812 27.428,-23.2084 8.664,-23.2213 -10.501,2.1006 -12.419,-1.6305 -12.047,-23.4433 0.36,-21.0948 8.017,-44.659 21.135,-65.0657 26.458,-41.1531 28.182,-69.3091 5.42,-88.4629 -22.694,-19.0943 -55.38,-17.489 -82.986,4.0747 -6.901,5.3896 -6.957,5.3811 -15.725,-3.0948 -4.838,-4.6781 -16.518,-12.1157 -25.952,-16.525 -55.573,-23.5129 -116.153,-1.2187 -142.34,37.1166 z m 77.861,-26.5506 c 23.088,1.723 51.64,15.172 57.562,30.6547 1.336,3.4939 5.69,7.1697 9.676,8.1702 5.198,1.3043 7.25,3.732 7.25,8.5683 0.305,13.2247 13.746,9.4521 3.887,29.4653 4.251,3.5291 2.935,17.6404 -1.945,20.8132 -1.857,1.2088 -1.063,4.7387 2.187,9.6992 6.042,9.221 4.548,28.2461 -3.254,41.4549 -21.645,28.3692 -66.447,43.1528 -100.222,33.988 -9.551,-2.9467 -12.728,-8.4216 -4.887,-8.4216 6.22,0 24.713,-9.8249 30.374,-16.1355 11.72,-13.0646 8.648,-37.6683 -6.396,-51.2 -5.403,-4.8618 -9.852,-5.4736 -35.151,-4.8411 -35.732,0.8936 -44.693,-2.0581 -44.693,-14.7283 0,-10.775 7.168,-22.0946 12.655,-19.9884 5.214,2.0006 8.853,-4.252 4.822,-8.2836 -5.924,-5.9224 -3.227,-12.4476 12.153,-29.4232 27.524,-27.4632 43.366,-30.7336 55.982,-29.7921 z m 145.71,5.8042 c 1.619,-0.053 3.223,0.07 4.803,0.3769 0.332,7.1184 -16.576,11.8756 -25.282,17.5887 -10.011,6.6342 -10.166,2.1844 -0.268,-7.7137 6.471,-6.4716 13.732,-10.0214 20.747,-10.2519 z m -437.784,7.1696 c -6.045,0 -6.799,1.2363 -6.516,10.6706 0.261,8.7087 -1.709,12.8053 -10.746,22.304 -6.087,6.4004 -14.276,17.9605 -18.192,25.688 -11.477,22.648 -9.136,40.1186 8.607,64.2701 8.703,11.8487 10.309,17.6302 5.909,21.2823 -7.523,6.2434 -21.37,-4.1856 -21.542,-16.2234 -0.128,-8.9564 -13.688,-12.3604 -19.2,-4.8203 0.107,74.3398 58.18,88.9243 94.87,90.8794 40.813,1.6867 85.536,-7.8279 109.711,-53.315 10.573,-16.4681 15.162,-50.0259 9.97,-72.9302 -8.69,-38.3453 -25.101,-61.1479 -55.162,-76.6493 -29.637,-18.0274 -53.819,-6.9511 -84.057,1.2355 -4.779,-9.543 -7.914,-12.3917 -13.652,-12.3917 z m 363.333,0.1051 c 0.69,-0.047 2.126,0.5851 4.419,1.6291 3.443,1.5695 7.813,5.3342 9.706,8.3671 2.957,4.7333 2.659,5.5154 -2.088,5.5154 -3.261,0 -7.249,-3.4365 -9.709,-8.3673 -2.545,-5.102 -3.477,-7.0669 -2.328,-7.1443 z m -104.652,5.7623 c -9.074,-0.3548 -19.13,13.2959 -13.146,19.2807 3.178,3.178 13.834,2.136 19.339,-1.8888 5.478,-7.8675 1.828,-16.2966 -6.193,-17.3919 z m -829.121,2.9944 c -14.853,0.038 -28.974,5.0717 -50.604,12.5214 -31.536,19.5666 -48.747,35.1195 -61.604,70.6312 -34.967,6.7104 -61.779,41.5781 -67.313,64.3832 -1.574,6.4808 -0.171,9.5808 8.119,17.8652 5.513,5.5138 12.145,10.0255 14.738,10.0255 3.799,0 3.087,2.362 -3.686,12.2076 -18.615,17.3135 -24.931,60.1577 13.229,44.4366 2.618,-2.6178 4.983,-1.9001 10.343,3.1366 4.265,4.0055 10.77,6.637 16.84,6.8093 8.059,0.2285 10.807,1.9747 14.817,9.4183 2.706,5.0264 7.686,10.4785 11.068,12.1154 10.924,5.2872 26.15,3.8002 37.087,-3.6224 7.777,-5.2784 12.657,-6.6055 19.966,-5.4192 12.771,2.0724 26.457,-5.1513 34.011,-17.9529 3.986,-6.7588 7.32,-9.4438 10.3,-8.3002 7.469,2.8652 35.527,-4.361 51.029,-13.1413 28.294,-16.0243 45.411,-38.7147 54.742,-72.5618 6.145,-22.282 5.007,-41.974 -3.671,-63.4703 -4.815,-11.9251 -4.796,-12.0739 2.554,-21.7095 4.07,-5.3365 7.399,-11.1904 7.399,-13.0072 0,-5.3401 -10.111,-3.7896 -15.725,2.412 -2.845,3.1449 -6.361,5.7207 -7.813,5.7207 -19.951,-7.7432 -42.741,-39.1964 -66.516,-46.6185 -11.222,-4.1284 -20.397,-5.9029 -29.31,-5.8797 z m 307.966,0.03 c 5.311,0.025 10.363,0.9518 15.198,2.764 60.458,16.6573 73.795,70.1328 35.91,131.7646 -21.476,34.9366 -63.343,53.2836 -104.167,41.4089 -18.287,-6.0697 -26.922,-13.0066 -38.084,-30.6086 -8.429,-13.2899 -12.145,-32.8239 -6.244,-32.8239 1.426,0 1.934,2.513 1.13,5.5866 -1.132,4.331 0.375,6.0112 6.7,7.4625 25.578,10.8211 39.129,12.3988 68.472,6.1436 14.232,-1.791 27.119,-22.006 24.03,-27.3338 0,-9.1139 -17.077,-11.081 -67.186,-7.7432 -16.452,1.0959 -30.239,0.7713 -32.475,-0.7622 -3.156,-2.1624 -2.189,-6.2219 5.124,-21.5462 8.007,-16.776 9.596,-18.5194 14.231,-15.6246 10.962,6.8454 19.402,-3.8147 10.26,-12.9571 -6.608,-6.6078 -5.44,-8.8583 11.06,-21.3158 21.825,-16.4769 40.106,-24.4942 56.041,-24.4148 z m 713.646,1.0093 h 7.241 c 6.726,0 8.611,2.089 16.102,17.865 2.477,5.214 -4.421,1.1413 -13.472,-7.9527 z m -161.452,6.2482 c -7.887,0.332 -19.349,14.8214 -14.755,20.3774 4.499,5.4403 7.529,6.5531 16.802,-3.5735 8.244,-11.9035 9.246,-16.638 -2.047,-16.8039 z m -229.302,2.9607 c 42.827,-1.291 77.088,46.1103 73.613,102.1401 -3.315,53.4071 -44.219,74.7416 -90.837,73.902 -34.551,0.857 -54.498,-4.4144 -69.016,-18.2293 -15.468,-14.719 -13.165,-23.9459 -13.165,-23.9459 10.968,15.5729 38.904,8.851 41.693,6.7592 14.559,-10.9195 -1.541,-23.2096 -12.245,-40.831 -5.416,-8.9171 -11.132,-19.5887 -12.703,-23.7155 -5.627,-14.8067 8.114,-43.5259 26.195,-54.7387 19.646,-12.1826 38.038,-19.589 52.295,-21.0603 1.398,-0.1437 2.789,-0.2391 4.17,-0.2806 z m 385.52,9.7869 c 6.835,0 14.368,5.8587 19.259,15.3189 3.071,5.9391 3.615,11.2812 1.938,19.1256 l -2.324,10.8841 -2,-14.607 c -2.063,-15.0642 -6.911,-21.794 -18.91,-26.2323 -6.688,-2.4742 -6.711,-2.5857 -0.841,-4.1209 0.939,-0.2453 1.9,-0.3686 2.878,-0.3684 z m -727.626,1.1096 c -5.887,0.1115 -17.869,9.4582 -17.869,13.9412 0,4.7772 11.77,3.7028 17.644,-1.6123 6.626,-5.9962 6.744,-12.4531 0.225,-12.3289 z m 324.886,0.022 c -10.759,0 -14.037,6.6887 -7.056,14.4018 9.539,10.5418 23.033,4.6501 18.248,-7.9693 -1.794,-4.7405 -4.738,-6.4325 -11.192,-6.4325 z m -593.265,3.7022 c 0.369,-0.022 0.74,-0.022 1.129,0.021 1.854,0.1523 3.988,0.9019 7.018,2.1569 8.992,3.725 50.822,35.5107 50.822,38.6197 0,0.9083 -2.854,3.9607 -6.34,6.7841 -6.606,5.4125 -2.256,16.6569 9.427,9.9588 8.087,-4.182 8.305,-4.0909 12.133,5.0796 6.612,15.8464 8.068,29.1069 3.835,34.8969 -3.261,4.4607 -8.317,5.3499 -32.799,5.7624 -23.643,0.3986 -30.007,1.4504 -34.759,5.75 -8.306,7.5176 -7.254,16.9574 2.843,25.4532 9.034,7.601 17.512,9.8805 41.222,11.0853 l 14.143,0.7161 -12.715,13.1076 c -16.784,17.3039 -27.062,23.9287 -43.286,27.9116 -7.378,1.8115 -16.382,3.2045 -20.009,3.095 -11.68,-0.3528 -34.564,-8.6558 -46.473,-16.8644 -16.896,-11.6479 -39.575,-36.9495 -44.922,-50.1195 -6.216,-15.3086 -12.179,-35.5946 -10.72,-36.463 28.59,-11.7651 41.623,-31.9191 58.507,-60.455 l 8.795,-17.2243 12.781,0.7871 c 9.604,0.5907 14.741,-0.7517 20.659,-5.4063 3.874,-3.0474 6.134,-4.5027 8.709,-4.6485 z m -58.485,3.9658 c 0.787,0.049 1.312,0.221 1.499,0.5235 3.155,5.1068 -16.356,38.6187 -31.028,53.2897 -8.579,8.5802 -16.969,15.5995 -18.644,15.5995 -4.102,0 -3.87,-17.8097 0.36,-27.7399 7.605,-17.8542 23.117,-34.8875 35.655,-39.1602 5.073,-1.7283 9.796,-2.6627 12.158,-2.5126 z m 354.009,5.6451 c -7.865,-0.1694 -25,8.9704 -25,13.7984 0,6.0115 11.106,5.2807 22.157,-1.4574 10.348,-6.3083 11.814,-10.478 4.289,-12.1779 -0.433,-0.099 -0.92,-0.1522 -1.446,-0.1629 z m 701.15,9.4518 c 1.827,3.4142 2.68,6.8482 1.893,7.6344 -0.787,0.7861 -2.922,-1.3642 -4.749,-4.7782 -4.378,-8.0504 -0.909,-9.7679 2.856,-2.8562 z m -439.885,-4.8494 c -0.763,-0.056 -1.468,0.022 -2.082,0.2555 -7.226,2.7733 -8.722,10.8042 -2.817,15.1221 2.914,2.1313 6.235,3.8738 7.378,3.8738 5.124,0 11.124,-3.7816 11.124,-7.0105 0,-4.9202 -8.258,-11.846 -13.603,-12.2409 z m 411.949,6.1186 c 4.833,-0.6069 17.206,11.1551 21.135,20.5576 2.167,5.1889 3.945,14.5453 3.945,20.7925 0,6.2471 -1.016,11.9892 -2.258,12.7559 -2.24,1.3845 -9.178,-23.833 -9.178,-33.3644 0,-2.7394 -3.147,-6.4145 -6.991,-8.1663 -7.491,-3.4138 -11.439,-9.8633 -7.515,-12.2868 0.249,-0.1543 0.54,-0.2487 0.862,-0.289 z m -942.71,2.877 c -0.403,0.04 -0.784,0.1307 -1.142,0.268 -6.602,2.5331 -7.248,4.5884 0.107,13.9283 6.325,8.0431 14.782,8.9 16.108,1.6335 1.201,-6.5723 -9.039,-16.4414 -15.066,-15.8298 z m -18.883,15.5658 c -2.74,-0.065 -5.362,0.8738 -7.303,3.2122 -2.951,3.5558 -0.754,9.6722 3.523,14.3975 5.941,6.5657 12.153,6.3294 16.536,-0.6323 4.766,-7.5671 -4.533,-16.7866 -12.756,-16.9774 z m 930.775,4.1586 c 0.129,-0.037 0.264,-0.035 0.414,0 0.401,0.094 0.887,0.434 1.462,1.0092 2.26,2.2613 2.282,4.6511 0.08,8.4342 -2.691,4.6274 -3.077,4.2399 -3.154,-3.1533 -0.05,-4.0361 0.302,-6.0403 1.194,-6.2901 z m -1071.279,30.7426 c 5.403,0.035 7.369,6.5658 10.581,21.8602 9.269,42.6182 35.372,80.1923 81.433,102.1235 7.147,2.2679 7.357,3.9762 1.52,12.3078 -6.051,8.6386 -15.015,8.1652 -18.493,-0.9798 -2.972,-7.5746 -17.265,-10.0852 -19.411,2.2698 -0.494,4.2894 -4.203,10.4016 -8.244,13.581 -13.03,10.2488 -28.181,5.2348 -25.199,-8.338 1.501,-7.1822 -6.749,-18.4756 -16.563,-14.7369 -1.719,1.719 -6.062,3.1242 -9.649,3.1242 -6.381,0 -7.68,-2.3902 -10.123,-18.552 -1.399,-9.2663 -10.561,-8.5307 -21.108,1.692 l -9.705,9.4057 v -9.033 c 0,-7.0968 3.678,-12.9649 17.153,-27.3714 9.434,-10.0852 17.154,-19.7022 17.154,-21.3746 0,-5.9569 -6.154,-6.6837 -16.214,-1.9096 -12.597,5.977 -22.711,2.4634 -25.559,-8.8824 -3.359,-13.3878 9.606,-30.7451 35.006,-46.8529 8.415,-5.3367 13.725,-8.357 17.421,-8.3336 z m 1105.564,2.6131 c 0.394,-0.026 0.946,1.3889 1.726,3.9993 1.37,4.5859 1.722,13.9483 0.783,20.805 -0.939,6.8568 -3.032,13.2876 -4.653,14.2887 -1.825,1.1276 -2.217,-0.084 -1.029,-3.1743 1.052,-2.7451 2.024,-12.9237 2.159,-22.6224 0.129,-9.201 0.356,-13.2519 1.014,-13.2963 z m -715.262,5.9174 c 8.402,-0.2674 10.624,5.3351 4.221,10.6495 -13.265,9.8582 -42.185,0.7123 -57.825,-2.5253 -3.834,-0.6117 43.64,-7.8073 53.604,-8.1242 z m 850.172,31.0902 c -4.949,-0.1073 -7.955,2.5329 -9.171,7.9693 -4.073,18.2026 -14.374,41.6293 -18.84,42.8453 -5.11,1.3907 -9.486,10.7401 -12.083,25.8177 -11.863,35.264 -59.109,142.5868 -95.037,139.1855 -7.824,-2.7661 -8.122,-3.5222 -6.756,-17.103 0.787,-7.8152 1.317,-27.0754 1.177,-42.7992 -0.272,-30.702 -5.08,-46.4789 -18.808,-61.7322 -11.18,-12.4224 -33.293,-21.0617 -68.135,-26.6219 -38.798,-6.1913 -84.797,6.3902 -90.054,24.6326 -14.649,39.4446 -22.585,73.9927 -39.897,111.8517 -11.771,25.4823 -12.268,29.2616 -4.138,31.3876 9.171,2.3984 13.29,-0.425 15.163,-10.3899 8.665,-25.9136 20.827,-50.9813 28.84,-76.2765 17.024,-54.2679 21.4,-60.0989 49.461,-65.9242 31.986,-6.6406 72.401,1.9662 90.142,19.1968 14.263,13.8542 19.096,30.505 19.096,65.8196 0,16.2297 -0.965,29.455 -2.144,29.3858 -4.392,-0.2577 -32.293,-39.0071 -38.543,-53.5325 -6.875,-15.9695 -15.698,-21.5445 -23.655,-14.9422 -3.662,3.0395 -2.905,5.858 5.637,21.0184 10.448,18.5405 35.644,52.8094 46.774,63.621 6.393,6.2105 6.531,7.2678 3.605,27.3714 -0.701,17.6764 -14.312,82.2294 -3.999,90.2386 5.491,4.0516 7.16,4.2789 13.519,1.8384 9.025,-39.1519 5.335,-63.497 10.867,-100.7205 l 9.318,1.5118 c 20.431,3.3158 46.513,-18.8074 72.378,-61.393 23.622,-38.8955 24.33,-40.2004 33.2,-61.4099 4.449,-10.6359 9.237,-20.0437 10.637,-20.9096 1.4,-0.8659 5.766,0.9551 9.698,4.0497 16.675,13.1158 67.076,17.4557 84.518,7.2783 7.839,-4.5732 9.874,-7.6362 10.329,-15.545 0.334,-5.8441 -1.133,-11.1526 -3.607,-13.0493 -3.643,-2.7943 -3.624,-3.6507 0.15,-6.7842 5.762,-4.7814 5.465,-10.6461 -0.707,-13.9495 -3.771,-2.0184 -9.151,-0.2668 -21.504,7.0061 -15.631,9.203 -30.646,14.9784 -30.646,11.7885 0,-0.8063 7.399,-5.5987 16.441,-10.6493 20.636,-11.5276 26.441,-16.6113 26.441,-23.1501 0,-4.924 -7.757,-11.0936 -13.949,-11.0936 -1.591,0 -4.584,3.5366 -6.656,7.8607 -4.526,9.4569 -28.871,23.4447 -40.859,23.4767 -16.43,0.045 -17.138,-2.9452 -5.956,-25.152 11.394,-22.6215 12.344,-27.64 5.721,-30.1815 -3.067,-1.1769 -5.719,-1.7942 -7.968,-1.8424 z m -1056.384,4.3972 c 20.065,0 27.152,0.9161 26.208,3.3961 -0.712,1.8695 -4.728,4.1197 -8.919,5.0004 -23.704,4.9785 -44.79,3.0311 -44.79,-4.1376 0,-3.4791 5.045,-4.2589 27.501,-4.2589 z m 944.771,19.7412 c 2.122,0.1501 4.032,2.2419 4.032,5.0336 0,1.3103 -1.209,2.383 -2.688,2.383 -3.879,0 -6.433,-5.0447 -3.476,-6.8722 0.691,-0.4271 1.423,-0.5944 2.132,-0.5444 z m -567.823,4.9667 c -1.132,-0.045 -2.416,0 -3.857,0.1501 -8.536,0.8306 -9.012,1.5592 -10.888,16.6716 -1.079,8.6907 -3.997,21.794 -6.482,29.1178 -4.055,11.942 -4.076,14.5862 -0.223,25.6502 10.234,29.3821 1.216,138.8083 -14.799,179.5809 -11.762,29.946 -18.216,34.3353 -31.275,21.278 -5.319,-5.32 -6.79,-9.0118 -5.403,-13.5767 8.504,-27.982 21.75,-85.0951 24.454,-105.4235 4.741,-35.6705 -2.433,-67.3653 -19.006,-83.936 -14.044,-14.0445 -31.181,-19.7017 -58.951,-19.4607 -22.172,0.193 -27.055,1.2479 -42.883,9.255 -28.48,14.4076 -45.479,38.9595 -61.656,89.0493 -8.093,25.0582 -29.877,69.3662 -39.415,80.167 -5.754,6.5169 -4.897,13.3962 1.939,15.5659 5.823,1.8487 16.947,-5.1112 16.947,-10.6035 0,-1.3769 5.361,-11.7902 11.91,-23.1418 17.375,-30.1069 27.206,-50.7375 29.588,-62.0922 3.118,-14.8646 19.411,-45.7383 30.365,-57.532 32.04,-34.4996 85.595,-34.244 105.122,0.4985 8.954,15.9304 8.377,59.9569 -1.353,103.0572 -4.034,17.8732 -7.805,32.9648 -8.375,33.5358 -4.353,-61.0804 -5.262,-73.6944 -3.607,-120.5119 -3.643,-11.3809 -10.991,-17.4435 -16.793,-13.8574 -1.497,78.8901 -1.552,102.4305 8.598,174.2329 -3.274,6.5879 -12.513,38.9993 -12.513,43.1135 0,1.9044 2.895,4.5655 6.432,5.9132 7.293,2.7776 16.397,-3.2598 16.504,-10.943 0.05,-2.5077 2.331,-7.5021 5.101,-11.1017 4.752,-6.1744 2.357,-3.0751 11.705,0.7455 13.356,5.4579 25.923,0.3027 35.135,-9.787 14.219,-15.5714 28.503,-73.7577 32.699,-133.2009 l 1.823,-25.8555 18.92,-0.053 c 30.852,-0.083 50.823,-13.7065 39.092,-26.6678 -4.318,-4.7714 -4.138,-5.4543 2.6,-9.8706 7.99,-5.2343 9.654,-15.2984 2.953,-17.8694 -2.358,-0.905 -4.289,-4.6809 -4.289,-8.3881 0,-10.1333 -8.984,-13.2494 -35.277,-12.2369 -22.996,0.8857 -23.341,0.7981 -24.117,-6.1936 -0.434,-3.9012 1.046,-14.0778 3.287,-22.6141 4.474,-17.0373 3.917,-22.3525 -4.012,-22.6643 z m 686.145,52.6908 c 0.74,-0.04 1.739,0.082 2.918,0.3895 3.147,0.8229 5.725,1.9893 5.725,2.5921 0,2.2559 -8.302,0.9949 -9.842,-1.4949 -0.551,-0.8912 -0.04,-1.418 1.199,-1.4867 z m -490.215,1.1224 c -26.553,0.3123 -58.899,6.366 -72.277,15.2895 -12.313,8.2142 -22.726,30.0117 -26.19,54.8475 -1.536,11.0066 -3.045,56.4832 -3.349,101.0558 -0.462,66.8209 0.15,81.4967 3.449,83.6384 7.125,4.3868 15.854,2.5786 14.385,-7.4416 -0.581,-4.7171 -1.128,-42.0281 -1.213,-82.9099 -0.02,-25.9445 -13.211,-122.8324 40.055,-139.3531 50.272,-16.5129 80.332,-12.1035 112.798,35.0058 9.036,14.8603 16.047,39.5639 19.067,67.1848 5.082,46.4717 9.204,93.1378 9.855,111.4958 l 0.606,17.1531 c 8.019,0.7666 14.46,2.2441 21.941,-0.7872 1.6,-1.6005 1.45,-11.4732 -0.378,-25.2232 -1.653,-12.4264 -4.901,-42.5324 -7.218,-66.9041 -5.451,-57.2889 -8.389,-71.1716 -20.618,-97.3956 -14.281,-30.6249 -37.386,-54.3534 -60.622,-62.2556 -7.351,-2.4997 -18.221,-3.5426 -30.291,-3.4004 z" fill="#030303" transform="translate(268.00391,44.507778) matrix(0.26458333,0,0,0.26458333,-5786.022,-1895.3233)"/>
</svg>
